<svg xmlns="http://www.w3.org/2000/svg" xmlns:xlink="http://www.w3.org/1999/xlink" width="378" zoomAndPan="magnify" viewBox="0 0 283.5 113.249998" height="151" preserveAspectRatio="xMidYMid meet" version="1.0"><defs><g/></defs><g fill="#b3954d" fill-opacity="1"><g transform="translate(47.904718, 51.104471)"><g><path d="M 1.65625 -0.769531 L 1.65625 -24.160156 L 6.457031 -24.160156 L 6.457031 -23.269531 L 5.765625 -23.269531 L 6.453125 -23.355469 C 6.480469 -23.148438 6.492188 -23.007812 6.492188 -22.933594 C 6.492188 -23.09375 6.441406 -23.234375 6.34375 -23.359375 C 6.292969 -23.421875 6.234375 -23.46875 6.167969 -23.511719 C 6.125 -23.535156 6.082031 -23.554688 6.039062 -23.566406 L 6.035156 -23.570312 C 6.050781 -23.566406 6.070312 -23.5625 6.09375 -23.5625 C 6.214844 -23.546875 6.40625 -23.535156 6.667969 -23.523438 C 7.214844 -23.5 8.042969 -23.492188 9.152344 -23.492188 C 11.472656 -23.46875 12.917969 -23.382812 13.484375 -23.234375 L 13.3125 -22.5625 L 13.414062 -23.246094 C 14.519531 -23.078125 15.488281 -22.777344 16.316406 -22.335938 L 15.992188 -21.726562 L 16.300781 -22.34375 C 16.789062 -22.101562 17.261719 -21.710938 17.726562 -21.171875 L 17.199219 -20.71875 L 17.679688 -21.21875 C 18.308594 -20.613281 18.765625 -19.957031 19.050781 -19.25 C 19.320312 -18.570312 19.492188 -17.757812 19.566406 -16.816406 L 18.875 -16.765625 L 19.5625 -16.851562 C 19.589844 -16.640625 19.601562 -16.433594 19.601562 -16.226562 C 19.601562 -14.570312 19.046875 -13.148438 17.9375 -11.964844 C 17.035156 -10.964844 15.929688 -10.253906 14.628906 -9.835938 L 14.605469 -9.828125 L 14.578125 -9.820312 C 13.992188 -9.679688 13.4375 -9.582031 12.917969 -9.523438 C 12.40625 -9.464844 11.195312 -9.421875 9.296875 -9.402344 L 5.808594 -9.367188 L 5.800781 -10.058594 L 6.492188 -10.054688 L 6.457031 -5.425781 L 6.457031 -0.078125 L 1.65625 -0.078125 Z M 3.039062 -0.769531 L 2.347656 -0.769531 L 2.347656 -1.460938 L 5.765625 -1.460938 L 5.765625 -0.769531 L 5.074219 -0.769531 L 5.074219 -5.4375 L 5.113281 -10.742188 L 9.277344 -10.785156 C 11.132812 -10.804688 12.292969 -10.84375 12.761719 -10.894531 C 13.226562 -10.949219 13.722656 -11.039062 14.253906 -11.167969 L 14.417969 -10.496094 L 14.207031 -11.152344 C 15.273438 -11.496094 16.179688 -12.082031 16.929688 -12.910156 C 17.789062 -13.828125 18.21875 -14.933594 18.21875 -16.226562 C 18.21875 -16.378906 18.207031 -16.527344 18.191406 -16.679688 L 18.1875 -16.695312 L 18.1875 -16.710938 C 18.125 -17.511719 17.984375 -18.1875 17.765625 -18.738281 C 17.554688 -19.257812 17.207031 -19.753906 16.722656 -20.222656 L 16.695312 -20.246094 L 16.675781 -20.269531 C 16.332031 -20.667969 16.003906 -20.949219 15.683594 -21.109375 L 15.675781 -21.109375 L 15.667969 -21.113281 C 14.976562 -21.480469 14.15625 -21.734375 13.207031 -21.878906 L 13.136719 -21.894531 C 12.675781 -22.015625 11.347656 -22.085938 9.152344 -22.109375 C 8.027344 -22.109375 7.179688 -22.117188 6.609375 -22.140625 C 6.3125 -22.152344 6.085938 -22.167969 5.925781 -22.1875 C 5.824219 -22.199219 5.734375 -22.214844 5.667969 -22.234375 C 5.589844 -22.257812 5.519531 -22.285156 5.457031 -22.324219 C 5.226562 -22.464844 5.109375 -22.667969 5.109375 -22.933594 C 5.109375 -22.949219 5.097656 -23.03125 5.082031 -23.183594 L 5.074219 -23.226562 L 5.074219 -23.46875 L 5.765625 -23.46875 L 5.765625 -22.777344 L 2.347656 -22.777344 L 2.347656 -23.46875 L 3.039062 -23.46875 Z M 11.230469 -21.089844 C 11.019531 -21.140625 10.070312 -21.167969 8.382812 -21.167969 L 5.765625 -21.167969 L 5.765625 -21.859375 L 6.457031 -21.859375 L 6.457031 -11.097656 L 5.765625 -11.097656 L 5.765625 -11.789062 L 8.917969 -11.789062 L 12.0625 -11.824219 L 12.070312 -11.132812 L 11.78125 -11.757812 L 12.214844 -11.960938 C 12.757812 -12.203125 13.238281 -12.609375 13.660156 -13.183594 C 14.09375 -13.773438 14.386719 -14.4375 14.546875 -15.167969 C 14.625 -15.523438 14.664062 -15.886719 14.664062 -16.261719 C 14.664062 -17.011719 14.496094 -17.765625 14.15625 -18.527344 C 13.859375 -19.171875 13.453125 -19.726562 12.9375 -20.1875 C 12.429688 -20.636719 11.863281 -20.9375 11.238281 -21.085938 Z M 11.5625 -22.433594 C 12.410156 -22.226562 13.175781 -21.820312 13.851562 -21.222656 C 14.519531 -20.628906 15.039062 -19.921875 15.417969 -19.089844 C 15.835938 -18.152344 16.046875 -17.207031 16.046875 -16.261719 C 16.046875 -15.785156 15.996094 -15.324219 15.898438 -14.875 C 15.699219 -13.953125 15.324219 -13.113281 14.773438 -12.363281 C 14.210938 -11.597656 13.550781 -11.042969 12.796875 -10.703125 L 12.226562 -10.441406 L 8.917969 -10.40625 L 5.074219 -10.40625 L 5.074219 -22.550781 L 8.382812 -22.550781 C 10.183594 -22.550781 11.242188 -22.511719 11.566406 -22.429688 Z M 11.5625 -22.433594 "/></g></g></g><g fill="#b3954d" fill-opacity="1"><g transform="translate(68.658556, 51.104471)"><g><path d="M 6.441406 -23.28125 L 6.679688 -24.160156 L 13.402344 -24.160156 L 20.054688 -0.078125 L 14.421875 -0.078125 L 14.152344 -1.097656 L 14.820312 -1.273438 L 14.164062 -1.054688 C 14.113281 -1.203125 13.742188 -2.566406 13.046875 -5.152344 L 12.042969 -8.695312 L 12.707031 -8.886719 L 12.707031 -8.195312 L 9.019531 -8.195312 L 5.40625 -8.160156 L 5.398438 -8.851562 L 6.0625 -8.664062 L 5.292969 -5.945312 C 4.566406 -3.292969 4.179688 -1.921875 4.140625 -1.835938 L 3.519531 -2.144531 L 4.183594 -1.953125 L 3.636719 -0.078125 L 0.0117188 -0.078125 L 0.277344 -0.96875 C 0.65625 -2.238281 1.023438 -3.507812 1.378906 -4.78125 L 3.691406 -13.0625 L 5.9375 -21.304688 C 6.003906 -21.566406 6.074219 -21.847656 6.15625 -22.140625 L 6.355469 -22.894531 C 6.382812 -22.988281 6.398438 -23.0625 6.410156 -23.117188 C 6.414062 -23.136719 6.417969 -23.152344 6.421875 -23.160156 C 6.417969 -23.148438 6.417969 -23.125 6.417969 -23.101562 L 6.417969 -23.195312 Z M 7.773438 -22.917969 L 7.109375 -23.101562 L 7.800781 -23.101562 C 7.800781 -22.996094 7.765625 -22.808594 7.691406 -22.535156 L 7.492188 -21.78125 C 7.414062 -21.496094 7.339844 -21.214844 7.273438 -20.941406 L 5.023438 -12.6875 L 2.710938 -4.40625 C 2.351562 -3.128906 1.984375 -1.851562 1.601562 -0.574219 L 0.9375 -0.769531 L 0.9375 -1.460938 L 3.117188 -1.460938 L 3.117188 -0.769531 L 2.453125 -0.964844 L 2.875 -2.398438 L 2.902344 -2.453125 C 2.902344 -2.460938 3.257812 -3.75 3.960938 -6.324219 L 4.875 -9.539062 L 9.019531 -9.578125 L 13.230469 -9.578125 L 14.378906 -5.511719 C 15.070312 -2.953125 15.433594 -1.613281 15.476562 -1.492188 L 15.480469 -1.472656 L 15.621094 -0.949219 L 14.953125 -0.769531 L 14.953125 -1.460938 L 19.144531 -1.460938 L 19.144531 -0.769531 L 18.476562 -0.585938 L 12.207031 -23.285156 L 12.875 -23.46875 L 12.875 -22.777344 L 7.207031 -22.777344 L 7.207031 -23.46875 L 7.875 -23.289062 Z M 8.925781 -20.023438 C 8.746094 -20.632812 8.609375 -21.089844 8.515625 -21.390625 C 8.46875 -21.535156 8.433594 -21.636719 8.410156 -21.703125 C 8.40625 -21.71875 8.402344 -21.726562 8.398438 -21.734375 C 8.410156 -21.707031 8.425781 -21.683594 8.445312 -21.65625 C 8.578125 -21.464844 8.765625 -21.371094 9.003906 -21.371094 C 9.222656 -21.371094 9.398438 -21.457031 9.527344 -21.625 C 9.546875 -21.652344 9.5625 -21.675781 9.570312 -21.695312 C 9.558594 -21.664062 9.539062 -21.609375 9.515625 -21.527344 L 8.851562 -21.726562 L 9.53125 -21.597656 C 9.371094 -20.75 8.515625 -17.601562 6.96875 -12.148438 C 6.769531 -11.4375 6.617188 -10.898438 6.515625 -10.535156 C 6.46875 -10.355469 6.429688 -10.21875 6.40625 -10.128906 C 6.394531 -10.085938 6.386719 -10.050781 6.378906 -10.03125 C 6.378906 -10.023438 6.375 -10.019531 6.375 -10.019531 C 6.386719 -10.0625 6.390625 -10.109375 6.390625 -10.160156 C 6.390625 -10.414062 6.28125 -10.609375 6.066406 -10.746094 C 6.015625 -10.777344 5.960938 -10.800781 5.90625 -10.816406 C 5.875 -10.828125 5.84375 -10.835938 5.816406 -10.839844 C 5.808594 -10.839844 5.800781 -10.839844 5.796875 -10.839844 C 5.796875 -10.839844 5.796875 -10.839844 5.800781 -10.839844 C 5.828125 -10.839844 5.871094 -10.835938 5.933594 -10.835938 C 6.070312 -10.832031 6.277344 -10.828125 6.554688 -10.824219 C 7.117188 -10.820312 7.960938 -10.816406 9.085938 -10.816406 C 10.210938 -10.816406 11.058594 -10.820312 11.617188 -10.824219 C 11.898438 -10.828125 12.105469 -10.832031 12.238281 -10.835938 C 12.300781 -10.835938 12.34375 -10.839844 12.371094 -10.839844 C 12.375 -10.839844 12.375 -10.839844 12.375 -10.839844 C 12.371094 -10.839844 12.363281 -10.839844 12.359375 -10.839844 C 12.328125 -10.835938 12.296875 -10.828125 12.265625 -10.816406 C 12.210938 -10.800781 12.15625 -10.777344 12.105469 -10.746094 C 11.890625 -10.609375 11.78125 -10.414062 11.78125 -10.160156 C 11.78125 -10.25 10.828125 -13.535156 8.925781 -20.023438 Z M 10.253906 -20.414062 C 12.195312 -13.800781 13.164062 -10.382812 13.164062 -10.160156 C 13.164062 -9.726562 12.933594 -9.492188 12.46875 -9.460938 C 12.421875 -9.457031 12.359375 -9.457031 12.28125 -9.453125 C 12.136719 -9.449219 11.917969 -9.445312 11.632812 -9.441406 C 11.066406 -9.4375 10.21875 -9.433594 9.085938 -9.433594 C 7.953125 -9.433594 7.105469 -9.4375 6.539062 -9.441406 C 6.253906 -9.445312 6.035156 -9.449219 5.890625 -9.453125 C 5.8125 -9.457031 5.75 -9.457031 5.703125 -9.460938 C 5.242188 -9.492188 5.007812 -9.726562 5.007812 -10.160156 C 5.007812 -10.246094 5.21875 -11.035156 5.636719 -12.527344 C 7.175781 -17.9375 8.019531 -21.046875 8.171875 -21.855469 L 8.1875 -21.925781 C 8.230469 -22.066406 8.269531 -22.179688 8.308594 -22.261719 C 8.457031 -22.589844 8.6875 -22.753906 9.003906 -22.753906 C 9.296875 -22.753906 9.511719 -22.613281 9.644531 -22.332031 C 9.664062 -22.292969 9.683594 -22.246094 9.707031 -22.1875 C 9.738281 -22.101562 9.78125 -21.972656 9.832031 -21.808594 C 9.933594 -21.496094 10.074219 -21.03125 10.253906 -20.410156 Z M 10.253906 -20.414062 "/></g></g></g><g fill="#b3954d" fill-opacity="1"><g transform="translate(89.211233, 51.104471)"><g><path d="M 1.65625 -0.769531 L 1.65625 -24.160156 L 6.660156 -24.160156 L 6.660156 -22.699219 L 5.96875 -22.699219 L 5.972656 -23.390625 L 9.527344 -23.355469 C 11.921875 -23.332031 13.320312 -23.296875 13.726562 -23.25 C 14.882812 -23.105469 15.851562 -22.839844 16.636719 -22.445312 C 18.058594 -21.761719 19.011719 -20.699219 19.496094 -19.265625 L 19.503906 -19.25 C 19.636719 -18.824219 19.703125 -18.1875 19.703125 -17.332031 C 19.703125 -16.195312 19.496094 -15.226562 19.089844 -14.433594 L 18.472656 -14.753906 L 19.097656 -14.453125 C 18.296875 -12.777344 16.828125 -11.789062 14.679688 -11.484375 L 14.214844 -11.417969 L 14.117188 -12.105469 L 14.734375 -12.414062 L 16.109375 -9.664062 C 16.707031 -8.441406 17.320312 -7.265625 17.941406 -6.132812 C 18.347656 -5.410156 18.789062 -4.5625 19.261719 -3.589844 L 20.296875 -1.554688 L 21.035156 -0.078125 L 15.578125 -0.078125 L 14.277344 -2.523438 C 13.691406 -3.648438 12.75 -5.511719 11.453125 -8.105469 L 9.707031 -11.664062 L 10.328125 -11.96875 L 10.328125 -11.277344 L 5.96875 -11.277344 L 5.96875 -11.96875 L 6.660156 -11.96875 L 6.660156 -0.078125 L 1.65625 -0.078125 Z M 3.039062 -0.769531 L 2.347656 -0.769531 L 2.347656 -1.460938 L 5.96875 -1.460938 L 5.96875 -0.769531 L 5.277344 -0.769531 L 5.277344 -12.660156 L 10.757812 -12.660156 L 12.6875 -8.726562 C 13.984375 -6.136719 14.917969 -4.285156 15.496094 -3.175781 L 16.601562 -1.097656 L 15.992188 -0.769531 L 15.992188 -1.460938 L 19.914062 -1.460938 L 19.914062 -0.769531 L 19.296875 -0.460938 L 19.0625 -0.925781 L 18.019531 -2.980469 C 17.558594 -3.929688 17.125 -4.761719 16.726562 -5.46875 C 16.097656 -6.617188 15.476562 -7.808594 14.871094 -9.046875 L 13.066406 -12.652344 L 14.488281 -12.855469 C 16.144531 -13.089844 17.261719 -13.820312 17.851562 -15.050781 L 17.855469 -15.058594 L 17.859375 -15.070312 C 18.164062 -15.664062 18.320312 -16.417969 18.320312 -17.332031 C 18.320312 -18.046875 18.273438 -18.546875 18.183594 -18.835938 L 18.84375 -19.042969 L 18.1875 -18.820312 C 17.824219 -19.890625 17.101562 -20.6875 16.019531 -21.207031 C 15.375 -21.53125 14.554688 -21.753906 13.566406 -21.878906 C 13.210938 -21.917969 11.859375 -21.953125 9.515625 -21.972656 L 5.277344 -22.011719 L 5.277344 -23.46875 L 5.96875 -23.46875 L 5.96875 -22.777344 L 2.347656 -22.777344 L 2.347656 -23.46875 L 3.039062 -23.46875 Z M 11.90625 -20.90625 C 11.664062 -20.992188 10.621094 -21.046875 8.777344 -21.066406 L 5.96875 -21.066406 L 5.96875 -21.757812 L 6.660156 -21.757812 L 6.660156 -12.875 L 5.96875 -12.875 L 5.976562 -13.566406 L 9.027344 -13.53125 C 10.976562 -13.53125 12.058594 -13.558594 12.269531 -13.613281 L 12.4375 -12.941406 L 12.253906 -13.609375 C 12.714844 -13.738281 13.132812 -13.964844 13.515625 -14.289062 C 13.894531 -14.613281 14.175781 -14.976562 14.359375 -15.375 C 14.652344 -16 14.796875 -16.632812 14.796875 -17.265625 C 14.796875 -17.382812 14.777344 -17.691406 14.734375 -18.199219 C 14.703125 -18.578125 14.460938 -19.039062 14.019531 -19.574219 C 13.503906 -20.183594 12.808594 -20.625 11.933594 -20.898438 L 11.917969 -20.902344 Z M 12.371094 -22.210938 L 12.136719 -21.558594 L 12.34375 -22.21875 C 13.476562 -21.867188 14.390625 -21.277344 15.082031 -20.457031 C 15.710938 -19.699219 16.054688 -18.984375 16.113281 -18.316406 C 16.160156 -17.769531 16.179688 -17.421875 16.179688 -17.265625 C 16.179688 -16.425781 15.992188 -15.605469 15.617188 -14.800781 C 15.351562 -14.214844 14.949219 -13.695312 14.414062 -13.238281 C 13.878906 -12.78125 13.28125 -12.460938 12.625 -12.277344 L 12.617188 -12.273438 L 12.605469 -12.269531 C 12.285156 -12.191406 11.085938 -12.148438 9.011719 -12.148438 L 5.277344 -12.191406 L 5.277344 -22.449219 L 8.792969 -22.449219 C 10.792969 -22.429688 11.984375 -22.347656 12.371094 -22.210938 Z M 12.371094 -22.210938 "/></g></g></g><g fill="#b3954d" fill-opacity="1"><g transform="translate(110.937387, 51.104471)"><g><path d="M 6.441406 -23.28125 L 6.679688 -24.160156 L 13.402344 -24.160156 L 20.054688 -0.078125 L 14.421875 -0.078125 L 14.152344 -1.097656 L 14.820312 -1.273438 L 14.164062 -1.054688 C 14.113281 -1.203125 13.742188 -2.566406 13.046875 -5.152344 L 12.042969 -8.695312 L 12.707031 -8.886719 L 12.707031 -8.195312 L 9.019531 -8.195312 L 5.40625 -8.160156 L 5.398438 -8.851562 L 6.0625 -8.664062 L 5.292969 -5.945312 C 4.566406 -3.292969 4.179688 -1.921875 4.140625 -1.835938 L 3.519531 -2.144531 L 4.183594 -1.953125 L 3.636719 -0.078125 L 0.0117188 -0.078125 L 0.277344 -0.96875 C 0.65625 -2.238281 1.023438 -3.507812 1.378906 -4.78125 L 3.691406 -13.0625 L 5.9375 -21.304688 C 6.003906 -21.566406 6.074219 -21.847656 6.15625 -22.140625 L 6.355469 -22.894531 C 6.382812 -22.988281 6.398438 -23.0625 6.410156 -23.117188 C 6.414062 -23.136719 6.417969 -23.152344 6.421875 -23.160156 C 6.417969 -23.148438 6.417969 -23.125 6.417969 -23.101562 L 6.417969 -23.195312 Z M 7.773438 -22.917969 L 7.109375 -23.101562 L 7.800781 -23.101562 C 7.800781 -22.996094 7.765625 -22.808594 7.691406 -22.535156 L 7.492188 -21.78125 C 7.414062 -21.496094 7.339844 -21.214844 7.273438 -20.941406 L 5.023438 -12.6875 L 2.710938 -4.40625 C 2.351562 -3.128906 1.984375 -1.851562 1.601562 -0.574219 L 0.9375 -0.769531 L 0.9375 -1.460938 L 3.117188 -1.460938 L 3.117188 -0.769531 L 2.453125 -0.964844 L 2.875 -2.398438 L 2.902344 -2.453125 C 2.902344 -2.460938 3.257812 -3.75 3.960938 -6.324219 L 4.875 -9.539062 L 9.019531 -9.578125 L 13.230469 -9.578125 L 14.378906 -5.511719 C 15.070312 -2.953125 15.433594 -1.613281 15.476562 -1.492188 L 15.480469 -1.472656 L 15.621094 -0.949219 L 14.953125 -0.769531 L 14.953125 -1.460938 L 19.144531 -1.460938 L 19.144531 -0.769531 L 18.476562 -0.585938 L 12.207031 -23.285156 L 12.875 -23.46875 L 12.875 -22.777344 L 7.207031 -22.777344 L 7.207031 -23.46875 L 7.875 -23.289062 Z M 8.925781 -20.023438 C 8.746094 -20.632812 8.609375 -21.089844 8.515625 -21.390625 C 8.46875 -21.535156 8.433594 -21.636719 8.410156 -21.703125 C 8.40625 -21.71875 8.402344 -21.726562 8.398438 -21.734375 C 8.410156 -21.707031 8.425781 -21.683594 8.445312 -21.65625 C 8.578125 -21.464844 8.765625 -21.371094 9.003906 -21.371094 C 9.222656 -21.371094 9.398438 -21.457031 9.527344 -21.625 C 9.546875 -21.652344 9.5625 -21.675781 9.570312 -21.695312 C 9.558594 -21.664062 9.539062 -21.609375 9.515625 -21.527344 L 8.851562 -21.726562 L 9.53125 -21.597656 C 9.371094 -20.75 8.515625 -17.601562 6.96875 -12.148438 C 6.769531 -11.4375 6.617188 -10.898438 6.515625 -10.535156 C 6.46875 -10.355469 6.429688 -10.21875 6.40625 -10.128906 C 6.394531 -10.085938 6.386719 -10.050781 6.378906 -10.03125 C 6.378906 -10.023438 6.375 -10.019531 6.375 -10.019531 C 6.386719 -10.0625 6.390625 -10.109375 6.390625 -10.160156 C 6.390625 -10.414062 6.28125 -10.609375 6.066406 -10.746094 C 6.015625 -10.777344 5.960938 -10.800781 5.90625 -10.816406 C 5.875 -10.828125 5.84375 -10.835938 5.816406 -10.839844 C 5.808594 -10.839844 5.800781 -10.839844 5.796875 -10.839844 C 5.796875 -10.839844 5.796875 -10.839844 5.800781 -10.839844 C 5.828125 -10.839844 5.871094 -10.835938 5.933594 -10.835938 C 6.070312 -10.832031 6.277344 -10.828125 6.554688 -10.824219 C 7.117188 -10.820312 7.960938 -10.816406 9.085938 -10.816406 C 10.210938 -10.816406 11.058594 -10.820312 11.617188 -10.824219 C 11.898438 -10.828125 12.105469 -10.832031 12.238281 -10.835938 C 12.300781 -10.835938 12.34375 -10.839844 12.371094 -10.839844 C 12.375 -10.839844 12.375 -10.839844 12.375 -10.839844 C 12.371094 -10.839844 12.363281 -10.839844 12.359375 -10.839844 C 12.328125 -10.835938 12.296875 -10.828125 12.265625 -10.816406 C 12.210938 -10.800781 12.15625 -10.777344 12.105469 -10.746094 C 11.890625 -10.609375 11.78125 -10.414062 11.78125 -10.160156 C 11.78125 -10.25 10.828125 -13.535156 8.925781 -20.023438 Z M 10.253906 -20.414062 C 12.195312 -13.800781 13.164062 -10.382812 13.164062 -10.160156 C 13.164062 -9.726562 12.933594 -9.492188 12.46875 -9.460938 C 12.421875 -9.457031 12.359375 -9.457031 12.28125 -9.453125 C 12.136719 -9.449219 11.917969 -9.445312 11.632812 -9.441406 C 11.066406 -9.4375 10.21875 -9.433594 9.085938 -9.433594 C 7.953125 -9.433594 7.105469 -9.4375 6.539062 -9.441406 C 6.253906 -9.445312 6.035156 -9.449219 5.890625 -9.453125 C 5.8125 -9.457031 5.75 -9.457031 5.703125 -9.460938 C 5.242188 -9.492188 5.007812 -9.726562 5.007812 -10.160156 C 5.007812 -10.246094 5.21875 -11.035156 5.636719 -12.527344 C 7.175781 -17.9375 8.019531 -21.046875 8.171875 -21.855469 L 8.1875 -21.925781 C 8.230469 -22.066406 8.269531 -22.179688 8.308594 -22.261719 C 8.457031 -22.589844 8.6875 -22.753906 9.003906 -22.753906 C 9.296875 -22.753906 9.511719 -22.613281 9.644531 -22.332031 C 9.664062 -22.292969 9.683594 -22.246094 9.707031 -22.1875 C 9.738281 -22.101562 9.78125 -21.972656 9.832031 -21.808594 C 9.933594 -21.496094 10.074219 -21.03125 10.253906 -20.410156 Z M 10.253906 -20.414062 "/></g></g></g><g fill="#b3954d" fill-opacity="1"><g transform="translate(131.490064, 51.104471)"><g><path d="M 1.65625 -12.910156 L 1.65625 -24.160156 L 6.660156 -24.160156 L 6.660156 -22.664062 L 5.96875 -22.664062 L 5.96875 -23.355469 L 8.617188 -23.355469 C 10.859375 -23.355469 12.570312 -23.277344 13.738281 -23.117188 C 15.640625 -22.871094 17.078125 -22.246094 18.050781 -21.234375 C 19.039062 -20.207031 19.535156 -18.828125 19.535156 -17.097656 C 19.535156 -16.097656 19.34375 -15.210938 18.957031 -14.441406 C 18.394531 -13.367188 17.46875 -12.496094 16.175781 -11.824219 C 16.035156 -11.75 15.929688 -11.6875 15.863281 -11.644531 L 15.859375 -11.644531 C 15.984375 -11.761719 16.046875 -11.914062 16.046875 -12.105469 C 16.046875 -12.285156 15.984375 -12.433594 15.863281 -12.558594 C 15.820312 -12.601562 15.777344 -12.632812 15.730469 -12.65625 L 15.421875 -12.035156 L 15.421875 -12.726562 C 15.535156 -12.726562 15.855469 -12.621094 16.382812 -12.410156 C 17.164062 -12.109375 17.851562 -11.652344 18.449219 -11.046875 C 19.039062 -10.441406 19.484375 -9.765625 19.785156 -9.007812 C 20.066406 -8.324219 20.203125 -7.511719 20.203125 -6.570312 L 20.203125 -6.402344 C 20.203125 -5.441406 20 -4.566406 19.589844 -3.773438 C 19.359375 -3.308594 18.992188 -2.828125 18.492188 -2.328125 C 17.210938 -1.09375 15.40625 -0.355469 13.078125 -0.117188 C 12.539062 -0.0703125 10.882812 -0.046875 8.113281 -0.046875 L 4.417969 -0.078125 C 3.921875 -0.078125 3.539062 -0.15625 3.277344 -0.304688 C 2.734375 -0.605469 2.296875 -1.015625 1.964844 -1.542969 L 1.9375 -1.582031 L 1.6875 -2.128906 L 1.65625 -12.90625 Z M 3.039062 -12.910156 L 3.070312 -2.28125 L 2.378906 -2.28125 L 3.011719 -2.566406 L 3.175781 -2.195312 L 2.546875 -1.910156 L 3.132812 -2.28125 C 3.335938 -1.957031 3.613281 -1.699219 3.964844 -1.503906 C 4.015625 -1.476562 4.171875 -1.460938 4.433594 -1.460938 L 8.113281 -1.429688 C 10.84375 -1.429688 12.449219 -1.449219 12.9375 -1.492188 C 14.949219 -1.699219 16.472656 -2.304688 17.515625 -3.304688 C 17.910156 -3.699219 18.191406 -4.066406 18.363281 -4.40625 C 18.667969 -5 18.820312 -5.667969 18.820312 -6.402344 L 18.820312 -6.570312 C 18.820312 -7.332031 18.714844 -7.972656 18.503906 -8.492188 C 18.269531 -9.078125 17.921875 -9.605469 17.460938 -10.078125 C 17.003906 -10.542969 16.476562 -10.890625 15.871094 -11.125 C 15.648438 -11.214844 15.484375 -11.28125 15.371094 -11.324219 C 15.316406 -11.34375 15.277344 -11.359375 15.253906 -11.367188 L 15.246094 -11.371094 C 15.300781 -11.351562 15.359375 -11.34375 15.421875 -11.34375 L 15.257812 -11.34375 L 15.113281 -11.417969 C 14.8125 -11.566406 14.664062 -11.796875 14.664062 -12.105469 C 14.664062 -12.371094 14.808594 -12.605469 15.097656 -12.796875 C 15.199219 -12.863281 15.347656 -12.949219 15.539062 -13.050781 C 16.574219 -13.589844 17.300781 -14.257812 17.722656 -15.0625 C 18.007812 -15.636719 18.152344 -16.3125 18.152344 -17.097656 C 18.152344 -18.457031 17.785156 -19.515625 17.054688 -20.273438 C 16.304688 -21.050781 15.136719 -21.542969 13.550781 -21.746094 C 12.441406 -21.898438 10.796875 -21.972656 8.617188 -21.972656 L 5.277344 -21.972656 L 5.277344 -23.46875 L 5.96875 -23.46875 L 5.96875 -22.777344 L 2.347656 -22.777344 L 2.347656 -23.46875 L 3.039062 -23.46875 Z M 11.484375 -20.902344 C 11.285156 -20.96875 10.351562 -21 8.683594 -21 C 7.785156 -21 7.109375 -20.996094 6.664062 -20.984375 C 6.449219 -20.980469 6.289062 -20.972656 6.1875 -20.964844 C 6.15625 -20.960938 6.132812 -20.960938 6.128906 -20.960938 C 6.15625 -20.964844 6.1875 -20.972656 6.21875 -20.984375 C 6.28125 -21.007812 6.335938 -21.039062 6.390625 -21.082031 C 6.570312 -21.21875 6.660156 -21.398438 6.660156 -21.625 L 6.660156 -12.808594 L 5.96875 -12.808594 L 5.96875 -13.5 L 8.851562 -13.5 C 10.695312 -13.5 11.722656 -13.527344 11.9375 -13.578125 C 12.511719 -13.726562 13.023438 -14.011719 13.476562 -14.433594 C 13.910156 -14.84375 14.1875 -15.3125 14.3125 -15.847656 L 14.320312 -15.878906 L 14.332031 -15.910156 C 14.398438 -16.105469 14.429688 -16.402344 14.429688 -16.796875 C 14.429688 -16.832031 14.425781 -17 14.414062 -17.292969 C 14.402344 -17.546875 14.359375 -17.828125 14.28125 -18.136719 C 14.132812 -18.800781 13.816406 -19.371094 13.339844 -19.847656 C 12.855469 -20.332031 12.246094 -20.679688 11.507812 -20.894531 Z M 11.921875 -22.214844 L 11.703125 -21.558594 L 11.894531 -22.222656 C 12.855469 -21.945312 13.664062 -21.476562 14.320312 -20.824219 C 14.984375 -20.160156 15.417969 -19.375 15.625 -18.472656 C 15.726562 -18.070312 15.78125 -17.691406 15.796875 -17.34375 C 15.808594 -17.03125 15.8125 -16.851562 15.8125 -16.796875 C 15.8125 -16.253906 15.757812 -15.8125 15.644531 -15.472656 L 14.988281 -15.691406 L 15.660156 -15.535156 C 15.472656 -14.726562 15.058594 -14.023438 14.421875 -13.425781 C 13.796875 -12.84375 13.082031 -12.445312 12.269531 -12.238281 C 11.949219 -12.15625 10.808594 -12.117188 8.851562 -12.117188 L 5.277344 -12.117188 L 5.277344 -21.625 C 5.277344 -21.855469 5.367188 -22.039062 5.550781 -22.179688 C 5.605469 -22.222656 5.667969 -22.257812 5.738281 -22.28125 C 5.785156 -22.300781 5.835938 -22.3125 5.894531 -22.324219 C 5.941406 -22.332031 6.007812 -22.339844 6.085938 -22.34375 C 6.210938 -22.355469 6.390625 -22.359375 6.628906 -22.367188 C 7.089844 -22.378906 7.773438 -22.382812 8.683594 -22.382812 C 10.503906 -22.382812 11.582031 -22.328125 11.921875 -22.214844 Z M 12.402344 -10.820312 C 12.113281 -10.878906 10.984375 -10.910156 9.019531 -10.910156 L 5.96875 -10.910156 L 5.96875 -11.601562 L 6.660156 -11.601562 L 6.660156 -11.445312 L 6.65625 -11.421875 C 6.636719 -11.101562 6.625 -9.445312 6.625 -6.453125 C 6.625 -4.953125 6.628906 -3.820312 6.632812 -3.050781 C 6.636719 -2.671875 6.640625 -2.382812 6.644531 -2.183594 C 6.648438 -2.089844 6.648438 -2.019531 6.652344 -1.96875 C 6.652344 -1.949219 6.652344 -1.9375 6.652344 -1.929688 C 6.648438 -1.972656 6.640625 -2.015625 6.625 -2.0625 L 6.660156 -1.957031 L 6.660156 -1.675781 L 5.96875 -1.675781 L 5.96875 -2.367188 L 9.050781 -2.367188 C 10.515625 -2.390625 11.40625 -2.40625 11.726562 -2.417969 C 11.980469 -2.425781 12.191406 -2.464844 12.371094 -2.527344 C 12.949219 -2.738281 13.449219 -3.046875 13.871094 -3.449219 L 14.351562 -2.949219 L 13.855469 -3.433594 C 14.546875 -4.144531 14.9375 -5.019531 15.035156 -6.066406 C 15.054688 -6.308594 15.066406 -6.546875 15.066406 -6.773438 C 15.066406 -8.035156 14.632812 -9.101562 13.761719 -9.972656 C 13.277344 -10.453125 12.824219 -10.738281 12.402344 -10.820312 Z M 12.675781 -12.179688 C 13.371094 -12.039062 14.058594 -11.628906 14.738281 -10.949219 C 15.878906 -9.808594 16.449219 -8.417969 16.449219 -6.773438 C 16.449219 -6.507812 16.4375 -6.230469 16.414062 -5.9375 C 16.285156 -4.570312 15.765625 -3.410156 14.84375 -2.46875 L 14.835938 -2.460938 L 14.828125 -2.449219 C 14.265625 -1.914062 13.605469 -1.507812 12.84375 -1.226562 C 12.527344 -1.113281 12.171875 -1.050781 11.773438 -1.035156 C 11.445312 -1.023438 10.539062 -1.007812 9.050781 -0.984375 L 5.277344 -0.984375 L 5.277344 -1.84375 L 5.96875 -1.84375 L 5.3125 -1.625 C 5.265625 -1.761719 5.242188 -3.371094 5.242188 -6.453125 C 5.242188 -9.476562 5.253906 -11.160156 5.277344 -11.511719 L 5.96875 -11.464844 L 5.277344 -11.464844 L 5.277344 -12.292969 L 9.019531 -12.292969 C 11.078125 -12.292969 12.296875 -12.253906 12.675781 -12.179688 Z M 12.675781 -12.179688 "/></g></g></g><g fill="#b3954d" fill-opacity="1"><g transform="translate(153.585022, 51.104471)"><g><path d="M 10.015625 -24.222656 C 10.441406 -24.269531 10.882812 -24.296875 11.332031 -24.296875 C 12.0625 -24.296875 12.921875 -24.214844 13.910156 -24.050781 C 14.925781 -23.882812 15.898438 -23.574219 16.832031 -23.117188 C 18.625 -22.246094 20 -20.882812 20.964844 -19.027344 C 21.933594 -17.113281 22.417969 -14.75 22.417969 -11.9375 L 22.417969 -11.164062 C 22.347656 -9.734375 22.171875 -8.46875 21.894531 -7.371094 C 21.507812 -5.972656 20.835938 -4.691406 19.882812 -3.519531 C 18.484375 -1.761719 16.601562 -0.632812 14.226562 -0.128906 L 14.082031 -0.804688 L 14.242188 -0.132812 C 13.71875 -0.0078125 12.894531 0.0546875 11.769531 0.0546875 C 10.34375 0.0546875 9.152344 -0.078125 8.199219 -0.339844 C 6.828125 -0.699219 5.597656 -1.34375 4.511719 -2.273438 C 3.421875 -3.207031 2.609375 -4.316406 2.078125 -5.601562 C 1.371094 -7.367188 1.019531 -9.421875 1.019531 -11.769531 L 1.019531 -12.371094 C 1.066406 -14.828125 1.523438 -16.953125 2.394531 -18.742188 L 3.015625 -18.441406 L 2.382812 -18.714844 C 2.699219 -19.445312 3.148438 -20.160156 3.726562 -20.859375 C 4.304688 -21.558594 4.925781 -22.128906 5.585938 -22.570312 L 5.96875 -21.996094 L 5.570312 -22.558594 C 6.871094 -23.476562 8.355469 -24.03125 10.011719 -24.222656 Z M 10.171875 -22.851562 C 8.746094 -22.683594 7.476562 -22.210938 6.367188 -21.429688 L 6.359375 -21.421875 L 6.351562 -21.417969 C 5.804688 -21.054688 5.285156 -20.574219 4.789062 -19.976562 C 4.296875 -19.378906 3.917969 -18.777344 3.652344 -18.164062 L 3.644531 -18.152344 L 3.640625 -18.136719 C 2.855469 -16.53125 2.445312 -14.609375 2.402344 -12.371094 L 2.402344 -11.769531 C 2.402344 -9.597656 2.71875 -7.722656 3.355469 -6.132812 C 3.804688 -5.050781 4.488281 -4.113281 5.410156 -3.324219 C 6.335938 -2.53125 7.386719 -1.980469 8.566406 -1.671875 C 9.398438 -1.441406 10.46875 -1.328125 11.769531 -1.328125 C 12.785156 -1.328125 13.503906 -1.378906 13.921875 -1.476562 L 13.929688 -1.480469 L 13.9375 -1.480469 C 15.988281 -1.917969 17.613281 -2.886719 18.808594 -4.394531 C 19.640625 -5.414062 20.222656 -6.519531 20.554688 -7.714844 C 20.808594 -8.71875 20.96875 -9.890625 21.035156 -11.230469 L 21.726562 -11.199219 L 21.035156 -11.199219 L 21.035156 -11.9375 C 21.035156 -14.53125 20.601562 -16.683594 19.738281 -18.390625 C 18.914062 -19.976562 17.742188 -21.136719 16.226562 -21.875 C 15.414062 -22.269531 14.566406 -22.542969 13.683594 -22.6875 C 12.773438 -22.835938 11.988281 -22.914062 11.332031 -22.914062 C 10.933594 -22.914062 10.546875 -22.890625 10.167969 -22.847656 Z M 12.417969 -21.6875 C 12.179688 -21.746094 11.9375 -21.773438 11.703125 -21.773438 C 11.285156 -21.773438 10.765625 -21.667969 10.144531 -21.457031 C 9.578125 -21.265625 9.054688 -20.882812 8.578125 -20.3125 C 7.589844 -19.117188 6.980469 -17.71875 6.753906 -16.113281 C 6.511719 -14.414062 6.390625 -13.097656 6.390625 -12.171875 C 6.390625 -10.769531 6.542969 -9.386719 6.84375 -8.027344 L 6.167969 -7.878906 L 6.835938 -8.058594 C 7.238281 -6.578125 7.820312 -5.320312 8.585938 -4.28125 C 9.300781 -3.3125 10.09375 -2.722656 10.957031 -2.515625 C 11.28125 -2.441406 11.597656 -2.402344 11.902344 -2.402344 C 12.28125 -2.402344 12.664062 -2.457031 13.042969 -2.574219 C 14.214844 -2.929688 15.144531 -4.007812 15.832031 -5.796875 C 16.574219 -7.71875 16.945312 -9.875 16.945312 -12.269531 L 16.945312 -13.109375 L 17.636719 -13.109375 L 16.945312 -13.089844 C 16.902344 -14.746094 16.679688 -16.1875 16.273438 -17.421875 C 15.882812 -18.59375 15.335938 -19.554688 14.636719 -20.296875 C 13.953125 -21.015625 13.207031 -21.480469 12.398438 -21.695312 L 12.574219 -22.363281 Z M 12.726562 -23.035156 L 12.738281 -23.035156 L 12.75 -23.03125 C 13.816406 -22.753906 14.777344 -22.15625 15.640625 -21.246094 C 16.480469 -20.355469 17.132812 -19.222656 17.589844 -17.851562 C 18.035156 -16.492188 18.28125 -14.914062 18.328125 -13.128906 L 18.328125 -12.269531 C 18.328125 -9.703125 17.925781 -7.378906 17.125 -5.300781 C 16.273438 -3.089844 15.046875 -1.738281 13.441406 -1.25 C 12.929688 -1.09375 12.417969 -1.019531 11.902344 -1.019531 C 11.492188 -1.019531 11.070312 -1.070312 10.636719 -1.171875 C 9.441406 -1.457031 8.390625 -2.21875 7.472656 -3.460938 C 6.605469 -4.636719 5.949219 -6.050781 5.5 -7.699219 L 5.492188 -7.730469 C 5.171875 -9.1875 5.007812 -10.667969 5.007812 -12.171875 C 5.007812 -13.164062 5.132812 -14.542969 5.382812 -16.308594 C 5.648438 -18.167969 6.359375 -19.796875 7.515625 -21.195312 C 8.15625 -21.96875 8.886719 -22.492188 9.703125 -22.765625 C 10.46875 -23.027344 11.132812 -23.15625 11.703125 -23.15625 C 12.042969 -23.15625 12.386719 -23.117188 12.726562 -23.035156 Z M 12.726562 -23.035156 "/></g></g></g><g fill="#b3954d" fill-opacity="1"><g transform="translate(178.093997, 51.104471)"><g><path d="M 2.347656 -24.160156 L 6.523438 -24.160156 L 6.558594 -1.746094 L 5.867188 -1.742188 L 5.871094 -2.433594 L 16.851562 -2.398438 L 16.851562 -0.078125 L 4.089844 -0.113281 C 3.292969 -0.113281 2.679688 -0.371094 2.25 -0.890625 C 1.851562 -1.371094 1.65625 -2.046875 1.65625 -2.917969 L 1.65625 -24.160156 Z M 2.347656 -22.777344 L 2.347656 -23.46875 L 3.039062 -23.46875 L 3.039062 -2.917969 C 3.039062 -2.378906 3.132812 -1.996094 3.316406 -1.773438 C 3.46875 -1.589844 3.726562 -1.496094 4.09375 -1.496094 L 16.164062 -1.460938 L 16.160156 -0.769531 L 15.46875 -0.769531 L 15.46875 -1.710938 L 16.160156 -1.710938 L 16.160156 -1.019531 L 5.175781 -1.054688 L 5.140625 -23.46875 L 5.832031 -23.46875 L 5.832031 -22.777344 Z M 2.347656 -22.777344 "/></g></g></g><g fill="#b3954d" fill-opacity="1"><g transform="translate(196.333238, 51.104471)"><g><path d="M 6.441406 -23.28125 L 6.679688 -24.160156 L 13.402344 -24.160156 L 20.054688 -0.078125 L 14.421875 -0.078125 L 14.152344 -1.097656 L 14.820312 -1.273438 L 14.164062 -1.054688 C 14.113281 -1.203125 13.742188 -2.566406 13.046875 -5.152344 L 12.042969 -8.695312 L 12.707031 -8.886719 L 12.707031 -8.195312 L 9.019531 -8.195312 L 5.40625 -8.160156 L 5.398438 -8.851562 L 6.0625 -8.664062 L 5.292969 -5.945312 C 4.566406 -3.292969 4.179688 -1.921875 4.140625 -1.835938 L 3.519531 -2.144531 L 4.183594 -1.953125 L 3.636719 -0.078125 L 0.0117188 -0.078125 L 0.277344 -0.96875 C 0.65625 -2.238281 1.023438 -3.507812 1.378906 -4.78125 L 3.691406 -13.0625 L 5.9375 -21.304688 C 6.003906 -21.566406 6.074219 -21.847656 6.15625 -22.140625 L 6.355469 -22.894531 C 6.382812 -22.988281 6.398438 -23.0625 6.410156 -23.117188 C 6.414062 -23.136719 6.417969 -23.152344 6.421875 -23.160156 C 6.417969 -23.148438 6.417969 -23.125 6.417969 -23.101562 L 6.417969 -23.195312 Z M 7.773438 -22.917969 L 7.109375 -23.101562 L 7.800781 -23.101562 C 7.800781 -22.996094 7.765625 -22.808594 7.691406 -22.535156 L 7.492188 -21.78125 C 7.414062 -21.496094 7.339844 -21.214844 7.273438 -20.941406 L 5.023438 -12.6875 L 2.710938 -4.40625 C 2.351562 -3.128906 1.984375 -1.851562 1.601562 -0.574219 L 0.9375 -0.769531 L 0.9375 -1.460938 L 3.117188 -1.460938 L 3.117188 -0.769531 L 2.453125 -0.964844 L 2.875 -2.398438 L 2.902344 -2.453125 C 2.902344 -2.460938 3.257812 -3.75 3.960938 -6.324219 L 4.875 -9.539062 L 9.019531 -9.578125 L 13.230469 -9.578125 L 14.378906 -5.511719 C 15.070312 -2.953125 15.433594 -1.613281 15.476562 -1.492188 L 15.480469 -1.472656 L 15.621094 -0.949219 L 14.953125 -0.769531 L 14.953125 -1.460938 L 19.144531 -1.460938 L 19.144531 -0.769531 L 18.476562 -0.585938 L 12.207031 -23.285156 L 12.875 -23.46875 L 12.875 -22.777344 L 7.207031 -22.777344 L 7.207031 -23.46875 L 7.875 -23.289062 Z M 8.925781 -20.023438 C 8.746094 -20.632812 8.609375 -21.089844 8.515625 -21.390625 C 8.46875 -21.535156 8.433594 -21.636719 8.410156 -21.703125 C 8.40625 -21.71875 8.402344 -21.726562 8.398438 -21.734375 C 8.410156 -21.707031 8.425781 -21.683594 8.445312 -21.65625 C 8.578125 -21.464844 8.765625 -21.371094 9.003906 -21.371094 C 9.222656 -21.371094 9.398438 -21.457031 9.527344 -21.625 C 9.546875 -21.652344 9.5625 -21.675781 9.570312 -21.695312 C 9.558594 -21.664062 9.539062 -21.609375 9.515625 -21.527344 L 8.851562 -21.726562 L 9.53125 -21.597656 C 9.371094 -20.75 8.515625 -17.601562 6.96875 -12.148438 C 6.769531 -11.4375 6.617188 -10.898438 6.515625 -10.535156 C 6.46875 -10.355469 6.429688 -10.21875 6.40625 -10.128906 C 6.394531 -10.085938 6.386719 -10.050781 6.378906 -10.03125 C 6.378906 -10.023438 6.375 -10.019531 6.375 -10.019531 C 6.386719 -10.0625 6.390625 -10.109375 6.390625 -10.160156 C 6.390625 -10.414062 6.28125 -10.609375 6.066406 -10.746094 C 6.015625 -10.777344 5.960938 -10.800781 5.90625 -10.816406 C 5.875 -10.828125 5.84375 -10.835938 5.816406 -10.839844 C 5.808594 -10.839844 5.800781 -10.839844 5.796875 -10.839844 C 5.796875 -10.839844 5.796875 -10.839844 5.800781 -10.839844 C 5.828125 -10.839844 5.871094 -10.835938 5.933594 -10.835938 C 6.070312 -10.832031 6.277344 -10.828125 6.554688 -10.824219 C 7.117188 -10.820312 7.960938 -10.816406 9.085938 -10.816406 C 10.210938 -10.816406 11.058594 -10.820312 11.617188 -10.824219 C 11.898438 -10.828125 12.105469 -10.832031 12.238281 -10.835938 C 12.300781 -10.835938 12.34375 -10.839844 12.371094 -10.839844 C 12.375 -10.839844 12.375 -10.839844 12.375 -10.839844 C 12.371094 -10.839844 12.363281 -10.839844 12.359375 -10.839844 C 12.328125 -10.835938 12.296875 -10.828125 12.265625 -10.816406 C 12.210938 -10.800781 12.15625 -10.777344 12.105469 -10.746094 C 11.890625 -10.609375 11.78125 -10.414062 11.78125 -10.160156 C 11.78125 -10.25 10.828125 -13.535156 8.925781 -20.023438 Z M 10.253906 -20.414062 C 12.195312 -13.800781 13.164062 -10.382812 13.164062 -10.160156 C 13.164062 -9.726562 12.933594 -9.492188 12.46875 -9.460938 C 12.421875 -9.457031 12.359375 -9.457031 12.28125 -9.453125 C 12.136719 -9.449219 11.917969 -9.445312 11.632812 -9.441406 C 11.066406 -9.4375 10.21875 -9.433594 9.085938 -9.433594 C 7.953125 -9.433594 7.105469 -9.4375 6.539062 -9.441406 C 6.253906 -9.445312 6.035156 -9.449219 5.890625 -9.453125 C 5.8125 -9.457031 5.75 -9.457031 5.703125 -9.460938 C 5.242188 -9.492188 5.007812 -9.726562 5.007812 -10.160156 C 5.007812 -10.246094 5.21875 -11.035156 5.636719 -12.527344 C 7.175781 -17.9375 8.019531 -21.046875 8.171875 -21.855469 L 8.1875 -21.925781 C 8.230469 -22.066406 8.269531 -22.179688 8.308594 -22.261719 C 8.457031 -22.589844 8.6875 -22.753906 9.003906 -22.753906 C 9.296875 -22.753906 9.511719 -22.613281 9.644531 -22.332031 C 9.664062 -22.292969 9.683594 -22.246094 9.707031 -22.1875 C 9.738281 -22.101562 9.78125 -21.972656 9.832031 -21.808594 C 9.933594 -21.496094 10.074219 -21.03125 10.253906 -20.410156 Z M 10.253906 -20.414062 "/></g></g></g><g fill="#b3954d" fill-opacity="1"><g transform="translate(216.885915, 51.104471)"><g><path d="M 8.28125 -24.308594 C 8.425781 -24.34375 8.636719 -24.363281 8.917969 -24.363281 C 9.15625 -24.363281 9.453125 -24.351562 9.800781 -24.328125 C 11.304688 -24.253906 12.539062 -23.90625 13.515625 -23.28125 C 14.265625 -22.804688 14.878906 -22.214844 15.359375 -21.511719 C 15.984375 -20.558594 16.335938 -19.609375 16.414062 -18.664062 L 15.726562 -18.609375 L 16.394531 -18.777344 L 16.710938 -17.515625 L 15.054688 -17.515625 C 14.769531 -17.515625 14.542969 -17.523438 14.382812 -17.542969 C 13.960938 -17.597656 13.695312 -17.777344 13.59375 -18.085938 L 13.578125 -18.128906 L 13.554688 -18.253906 C 13.539062 -18.324219 13.527344 -18.402344 13.515625 -18.492188 C 13.507812 -18.53125 13.503906 -18.5625 13.492188 -18.589844 L 13.476562 -18.640625 L 13.46875 -18.691406 C 13.394531 -19.105469 13.210938 -19.527344 12.910156 -19.957031 C 12.601562 -20.402344 12.269531 -20.746094 11.914062 -20.988281 L 12.304688 -21.558594 L 11.9375 -20.972656 C 11.433594 -21.289062 10.808594 -21.464844 10.054688 -21.503906 L 10.09375 -22.195312 L 10.09375 -21.503906 L 9.925781 -21.503906 C 9.117188 -21.503906 8.402344 -21.347656 7.785156 -21.039062 C 7.207031 -20.75 6.808594 -20.386719 6.585938 -19.941406 C 6.5 -19.769531 6.457031 -19.492188 6.457031 -19.109375 L 6.457031 -18.910156 C 6.457031 -18.4375 6.5 -18.09375 6.578125 -17.882812 C 6.777344 -17.363281 7.097656 -16.941406 7.546875 -16.621094 L 7.570312 -16.605469 C 7.847656 -16.386719 8.824219 -15.851562 10.503906 -15 C 12.21875 -14.121094 13.398438 -13.484375 14.039062 -13.097656 C 14.710938 -12.6875 15.378906 -12.152344 16.046875 -11.484375 C 17.035156 -10.523438 17.589844 -9.414062 17.71875 -8.152344 C 17.746094 -7.902344 17.757812 -7.65625 17.757812 -7.410156 C 17.757812 -6.972656 17.710938 -6.453125 17.613281 -5.859375 C 17.515625 -5.230469 17.335938 -4.660156 17.082031 -4.148438 C 16.1875 -2.363281 14.660156 -1.148438 12.5 -0.511719 C 11.507812 -0.203125 10.644531 -0.0390625 9.914062 -0.0117188 C 9.234375 0.0078125 8.8125 0.0195312 8.648438 0.0195312 C 7.582031 0.0195312 6.648438 -0.0859375 5.851562 -0.304688 C 4.753906 -0.578125 3.835938 -1.085938 3.097656 -1.824219 L 3.078125 -1.84375 L 3.058594 -1.867188 C 2.804688 -2.167969 2.609375 -2.410156 2.476562 -2.59375 C 2.335938 -2.785156 2.136719 -3.117188 1.875 -3.589844 L 1.859375 -3.621094 L 1.84375 -3.65625 C 1.660156 -4.089844 1.421875 -4.714844 1.125 -5.53125 C 0.808594 -6.414062 0.648438 -6.949219 0.648438 -7.140625 C 0.648438 -7.589844 0.929688 -7.835938 1.484375 -7.882812 C 1.636719 -7.894531 1.859375 -7.898438 2.144531 -7.898438 C 2.578125 -7.898438 2.851562 -7.894531 2.96875 -7.878906 C 3.152344 -7.855469 3.3125 -7.785156 3.4375 -7.675781 C 3.621094 -7.515625 3.710938 -7.316406 3.710938 -7.074219 C 3.710938 -6.996094 3.785156 -6.746094 3.9375 -6.316406 C 4.113281 -5.824219 4.265625 -5.410156 4.398438 -5.085938 L 3.753906 -4.828125 L 4.363281 -5.15625 C 4.644531 -4.632812 4.933594 -4.222656 5.234375 -3.925781 C 5.53125 -3.628906 5.925781 -3.351562 6.421875 -3.09375 C 7.121094 -2.746094 7.886719 -2.570312 8.71875 -2.570312 C 9.222656 -2.570312 9.609375 -2.613281 9.875 -2.703125 C 10.550781 -2.921875 11.085938 -3.324219 11.480469 -3.90625 C 11.882812 -4.503906 12.082031 -5.179688 12.082031 -5.933594 L 12.082031 -6.070312 L 12.773438 -6.070312 L 12.082031 -6.042969 C 12.066406 -6.546875 11.964844 -6.976562 11.785156 -7.335938 C 11.269531 -8.347656 9.542969 -9.667969 6.605469 -11.296875 L 6.941406 -11.902344 L 6.621094 -11.289062 C 5.644531 -11.800781 4.910156 -12.246094 4.410156 -12.625 C 2.921875 -13.722656 1.980469 -14.996094 1.578125 -16.445312 C 1.472656 -16.84375 1.421875 -17.335938 1.421875 -17.921875 C 1.421875 -18.515625 1.488281 -19.027344 1.621094 -19.453125 L 2.28125 -19.246094 L 1.613281 -19.433594 C 1.992188 -20.773438 2.792969 -21.878906 4.007812 -22.742188 C 5.1875 -23.582031 6.636719 -24.109375 8.363281 -24.324219 L 8.449219 -23.636719 Z M 8.617188 -22.964844 L 8.578125 -22.957031 L 8.535156 -22.949219 C 7.039062 -22.765625 5.800781 -22.320312 4.808594 -21.617188 C 3.859375 -20.9375 3.238281 -20.085938 2.945312 -19.058594 L 2.941406 -19.046875 L 2.941406 -19.039062 C 2.847656 -18.75 2.804688 -18.375 2.804688 -17.921875 C 2.804688 -17.457031 2.839844 -17.085938 2.914062 -16.8125 C 3.226562 -15.671875 4.007812 -14.640625 5.246094 -13.726562 C 5.683594 -13.390625 6.355469 -12.988281 7.261719 -12.515625 L 7.277344 -12.507812 C 10.460938 -10.738281 12.378906 -9.222656 13.023438 -7.953125 C 13.292969 -7.417969 13.4375 -6.796875 13.464844 -6.09375 L 13.464844 -5.933594 C 13.464844 -4.898438 13.1875 -3.964844 12.628906 -3.136719 C 12.058594 -2.289062 11.285156 -1.707031 10.3125 -1.390625 C 9.90625 -1.253906 9.375 -1.1875 8.71875 -1.1875 C 7.667969 -1.1875 6.691406 -1.414062 5.78125 -1.867188 C 5.160156 -2.191406 4.652344 -2.550781 4.253906 -2.949219 C 3.859375 -3.34375 3.492188 -3.859375 3.144531 -4.5 L 3.113281 -4.570312 C 2.976562 -4.914062 2.816406 -5.34375 2.632812 -5.855469 C 2.429688 -6.429688 2.324219 -6.839844 2.324219 -7.074219 C 2.324219 -6.898438 2.394531 -6.75 2.527344 -6.632812 C 2.613281 -6.558594 2.703125 -6.515625 2.796875 -6.503906 C 2.738281 -6.511719 2.519531 -6.515625 2.144531 -6.515625 C 1.898438 -6.515625 1.714844 -6.511719 1.601562 -6.503906 C 1.578125 -6.5 1.5625 -6.5 1.550781 -6.496094 C 1.546875 -6.496094 1.546875 -6.496094 1.542969 -6.496094 C 1.546875 -6.496094 1.554688 -6.5 1.558594 -6.5 C 1.605469 -6.511719 1.652344 -6.53125 1.703125 -6.558594 C 1.773438 -6.601562 1.832031 -6.652344 1.882812 -6.71875 C 1.984375 -6.839844 2.03125 -6.984375 2.03125 -7.140625 C 2.03125 -7.167969 2.03125 -7.191406 2.027344 -7.207031 C 2.03125 -7.199219 2.035156 -7.183594 2.039062 -7.164062 C 2.054688 -7.105469 2.078125 -7.023438 2.109375 -6.921875 C 2.179688 -6.703125 2.285156 -6.394531 2.425781 -6 C 2.714844 -5.207031 2.945312 -4.605469 3.117188 -4.191406 L 2.480469 -3.921875 L 3.085938 -4.257812 C 3.320312 -3.835938 3.488281 -3.554688 3.59375 -3.410156 C 3.707031 -3.253906 3.878906 -3.039062 4.117188 -2.761719 L 3.585938 -2.3125 L 4.078125 -2.800781 C 4.632812 -2.246094 5.347656 -1.855469 6.21875 -1.640625 C 6.894531 -1.453125 7.707031 -1.363281 8.648438 -1.363281 C 8.800781 -1.363281 9.203125 -1.375 9.867188 -1.394531 C 10.476562 -1.414062 11.222656 -1.5625 12.109375 -1.835938 C 13.882812 -2.359375 15.128906 -3.339844 15.84375 -4.769531 C 16.035156 -5.152344 16.171875 -5.589844 16.25 -6.078125 C 16.332031 -6.601562 16.375 -7.042969 16.375 -7.410156 C 16.375 -7.609375 16.363281 -7.808594 16.34375 -8.011719 C 16.25 -8.9375 15.824219 -9.769531 15.066406 -10.507812 C 14.480469 -11.09375 13.898438 -11.5625 13.320312 -11.914062 C 12.707031 -12.285156 11.5625 -12.902344 9.878906 -13.765625 C 8.117188 -14.660156 7.0625 -15.242188 6.714844 -15.515625 L 7.140625 -16.058594 L 6.738281 -15.5 C 6.066406 -15.980469 5.582031 -16.613281 5.289062 -17.386719 C 5.148438 -17.757812 5.074219 -18.265625 5.074219 -18.910156 L 5.074219 -19.109375 C 5.074219 -19.710938 5.167969 -20.195312 5.347656 -20.558594 C 5.707031 -21.277344 6.316406 -21.851562 7.167969 -22.277344 C 7.980469 -22.683594 8.898438 -22.886719 9.925781 -22.886719 L 10.128906 -22.886719 C 11.121094 -22.835938 11.96875 -22.585938 12.671875 -22.144531 L 12.695312 -22.128906 C 13.191406 -21.789062 13.640625 -21.328125 14.046875 -20.746094 C 14.460938 -20.148438 14.722656 -19.542969 14.832031 -18.925781 L 14.148438 -18.808594 L 14.804688 -19.027344 C 14.839844 -18.921875 14.867188 -18.808594 14.882812 -18.6875 C 14.894531 -18.625 14.902344 -18.570312 14.910156 -18.527344 L 14.925781 -18.441406 L 14.25 -18.304688 L 14.90625 -18.523438 C 14.839844 -18.722656 14.71875 -18.855469 14.539062 -18.914062 C 14.527344 -18.917969 14.519531 -18.921875 14.515625 -18.921875 C 14.523438 -18.921875 14.535156 -18.917969 14.554688 -18.917969 C 14.660156 -18.902344 14.824219 -18.898438 15.054688 -18.898438 L 15.824219 -18.898438 L 15.824219 -18.207031 L 15.15625 -18.039062 L 15.039062 -18.496094 L 15.035156 -18.550781 C 14.976562 -19.261719 14.703125 -19.988281 14.214844 -20.734375 C 13.84375 -21.28125 13.363281 -21.742188 12.769531 -22.117188 C 12 -22.609375 10.980469 -22.886719 9.710938 -22.945312 C 9.390625 -22.96875 9.125 -22.980469 8.917969 -22.980469 C 8.75 -22.980469 8.652344 -22.976562 8.617188 -22.964844 Z M 8.617188 -22.964844 "/></g></g></g><g fill="#b3954d" fill-opacity="1"><g transform="translate(104.343448, 86.867627)"><g><path d="M 10 -24.1875 C 10.519531 -24.257812 11.042969 -24.296875 11.566406 -24.296875 C 12.136719 -24.296875 12.851562 -24.230469 13.714844 -24.101562 C 14.605469 -23.96875 15.542969 -23.679688 16.519531 -23.226562 L 16.527344 -23.21875 L 16.539062 -23.214844 C 18.78125 -22.082031 20.371094 -20.222656 21.304688 -17.636719 C 21.914062 -15.925781 22.214844 -14.117188 22.214844 -12.203125 C 22.214844 -11.832031 22.203125 -11.460938 22.179688 -11.089844 C 22.042969 -8.566406 21.496094 -6.496094 20.546875 -4.878906 C 19.578125 -3.238281 18.203125 -1.996094 16.421875 -1.152344 L 16.40625 -1.144531 L 16.394531 -1.136719 C 16.273438 -1.089844 16.1875 -1.050781 16.132812 -1.023438 L 16.132812 -1.027344 C 16.164062 -1.046875 16.191406 -1.070312 16.21875 -1.097656 C 16.351562 -1.226562 16.417969 -1.386719 16.417969 -1.574219 C 16.417969 -1.703125 16.386719 -1.816406 16.328125 -1.910156 C 16.332031 -1.902344 16.34375 -1.890625 16.355469 -1.867188 C 16.394531 -1.8125 16.449219 -1.734375 16.527344 -1.625 C 16.683594 -1.402344 16.921875 -1.078125 17.238281 -0.644531 C 17.867188 0.21875 18.324219 0.824219 18.609375 1.171875 L 18.613281 1.179688 L 18.621094 1.1875 C 18.738281 1.339844 18.824219 1.457031 18.886719 1.542969 C 19.027344 1.742188 19.097656 1.917969 19.097656 2.078125 C 19.097656 2.253906 19.042969 2.402344 18.925781 2.535156 C 18.875 2.59375 18.8125 2.644531 18.746094 2.683594 C 18.695312 2.710938 18.640625 2.734375 18.582031 2.75 C 18.546875 2.757812 18.507812 2.765625 18.464844 2.773438 C 18.429688 2.777344 18.382812 2.78125 18.328125 2.785156 C 18.242188 2.789062 18.121094 2.792969 17.957031 2.796875 C 17.648438 2.800781 17.183594 2.804688 16.5625 2.804688 L 14.328125 2.804688 L 13.953125 2.28125 L 14.519531 1.878906 L 14.351562 2.546875 C 14.195312 2.511719 14.042969 2.410156 13.890625 2.246094 C 13.816406 2.167969 13.726562 2.058594 13.617188 1.921875 C 13.414062 1.667969 13.136719 1.296875 12.78125 0.808594 L 11.878906 -0.429688 L 12.4375 -0.839844 L 12.4375 -0.148438 L 11.835938 -0.148438 C 10.671875 -0.148438 9.621094 -0.242188 8.683594 -0.429688 C 7.285156 -0.71875 6.03125 -1.273438 4.917969 -2.09375 C 3.804688 -2.917969 2.960938 -3.894531 2.398438 -5.023438 C 1.710938 -6.398438 1.273438 -8.15625 1.089844 -10.300781 C 1.042969 -10.972656 1.019531 -11.628906 1.019531 -12.269531 C 1.019531 -13.21875 1.078125 -14.121094 1.191406 -14.980469 C 1.644531 -18.148438 3.011719 -20.570312 5.289062 -22.25 C 6.628906 -23.277344 8.195312 -23.925781 9.992188 -24.1875 Z M 10.191406 -22.820312 C 8.632812 -22.589844 7.273438 -22.03125 6.109375 -21.136719 C 4.140625 -19.6875 2.960938 -17.570312 2.5625 -14.792969 C 2.457031 -13.996094 2.402344 -13.15625 2.402344 -12.269531 C 2.402344 -11.660156 2.421875 -11.042969 2.464844 -10.421875 C 2.636719 -8.453125 3.027344 -6.859375 3.636719 -5.640625 C 4.101562 -4.710938 4.800781 -3.898438 5.742188 -3.203125 C 6.6875 -2.503906 7.757812 -2.03125 8.953125 -1.785156 C 9.804688 -1.613281 10.761719 -1.53125 11.835938 -1.53125 L 12.789062 -1.53125 L 13.90625 -0.00390625 C 14.246094 0.46875 14.507812 0.824219 14.699219 1.0625 C 14.785156 1.171875 14.851562 1.25 14.898438 1.300781 C 14.90625 1.308594 14.914062 1.316406 14.917969 1.320312 C 14.855469 1.269531 14.777344 1.230469 14.683594 1.207031 L 14.933594 1.269531 L 15.246094 1.710938 L 14.683594 2.113281 L 14.683594 1.421875 L 16.5625 1.421875 C 17.171875 1.421875 17.628906 1.417969 17.933594 1.414062 C 18.078125 1.410156 18.183594 1.40625 18.253906 1.402344 C 18.277344 1.402344 18.289062 1.402344 18.289062 1.402344 C 18.269531 1.402344 18.242188 1.410156 18.21875 1.414062 C 18.164062 1.429688 18.113281 1.449219 18.066406 1.476562 C 17.996094 1.515625 17.9375 1.566406 17.886719 1.625 C 17.773438 1.753906 17.714844 1.90625 17.714844 2.078125 C 17.714844 2.207031 17.742188 2.3125 17.800781 2.402344 C 17.792969 2.394531 17.78125 2.375 17.761719 2.347656 C 17.710938 2.273438 17.628906 2.167969 17.523438 2.03125 L 18.070312 1.609375 L 17.535156 2.046875 C 17.238281 1.679688 16.765625 1.054688 16.121094 0.171875 C 15.800781 -0.265625 15.5625 -0.597656 15.398438 -0.824219 C 15.316406 -0.9375 15.253906 -1.027344 15.210938 -1.089844 C 15.09375 -1.265625 15.03125 -1.429688 15.03125 -1.574219 C 15.03125 -1.871094 15.195312 -2.101562 15.515625 -2.261719 C 15.597656 -2.300781 15.710938 -2.351562 15.859375 -2.414062 L 16.125 -1.777344 L 15.832031 -2.402344 C 17.355469 -3.125 18.53125 -4.183594 19.351562 -5.582031 C 20.191406 -7.003906 20.671875 -8.867188 20.800781 -11.175781 C 20.824219 -11.519531 20.832031 -11.859375 20.832031 -12.203125 C 20.832031 -13.957031 20.554688 -15.613281 20.003906 -17.167969 C 19.191406 -19.40625 17.832031 -21.011719 15.914062 -21.980469 L 16.226562 -22.597656 L 15.9375 -21.96875 C 15.082031 -22.367188 14.273438 -22.621094 13.511719 -22.734375 C 12.71875 -22.851562 12.070312 -22.914062 11.566406 -22.914062 C 11.105469 -22.914062 10.644531 -22.878906 10.183594 -22.816406 Z M 12.226562 -21.40625 C 12.050781 -21.425781 11.886719 -21.4375 11.734375 -21.4375 C 11.34375 -21.4375 10.925781 -21.359375 10.488281 -21.207031 C 9.070312 -20.703125 8.019531 -19.394531 7.328125 -17.285156 C 6.839844 -15.835938 6.59375 -14.230469 6.59375 -12.472656 C 6.59375 -11.738281 6.691406 -10.488281 6.890625 -8.726562 C 7.078125 -7.070312 7.675781 -5.585938 8.691406 -4.28125 C 9.320312 -3.5 10.019531 -3.039062 10.792969 -2.890625 L 10.660156 -2.210938 L 10.757812 -2.898438 C 10.902344 -2.878906 11.035156 -2.863281 11.15625 -2.851562 C 11.269531 -2.84375 11.363281 -2.835938 11.433594 -2.835938 C 11.414062 -2.835938 11.390625 -2.832031 11.367188 -2.824219 C 11.285156 -2.804688 11.210938 -2.769531 11.144531 -2.71875 C 10.964844 -2.582031 10.875 -2.402344 10.875 -2.179688 C 10.875 -2.070312 10.898438 -1.972656 10.945312 -1.882812 C 10.945312 -1.878906 10.945312 -1.878906 10.945312 -1.878906 C 10.945312 -1.882812 10.941406 -1.886719 10.9375 -1.890625 C 10.921875 -1.921875 10.890625 -1.96875 10.851562 -2.03125 C 10.761719 -2.167969 10.632812 -2.371094 10.457031 -2.632812 L 10.445312 -2.648438 L 10.4375 -2.660156 C 10.097656 -3.226562 9.871094 -3.613281 9.753906 -3.820312 L 9.015625 -5.152344 L 13.917969 -5.152344 L 15.164062 -3.542969 L 14.617188 -3.117188 L 14.066406 -3.53125 L 14.382812 -3.957031 L 14.402344 -3.976562 C 14.84375 -4.480469 15.253906 -5.167969 15.625 -6.039062 C 16.328125 -7.699219 16.6875 -9.09375 16.710938 -10.222656 L 16.742188 -12.214844 C 16.742188 -14.289062 16.445312 -16.089844 15.851562 -17.621094 C 15.554688 -18.402344 15.253906 -19.03125 14.945312 -19.503906 L 15.523438 -19.882812 L 14.957031 -19.484375 C 14.824219 -19.675781 14.609375 -19.917969 14.3125 -20.214844 C 14.011719 -20.519531 13.769531 -20.738281 13.589844 -20.878906 L 14.015625 -21.425781 L 13.636719 -20.84375 C 13.203125 -21.128906 12.714844 -21.320312 12.183594 -21.414062 L 12.304688 -22.09375 Z M 12.382812 -22.78125 L 12.402344 -22.78125 L 12.425781 -22.777344 C 13.144531 -22.648438 13.800781 -22.390625 14.390625 -22.003906 L 14.417969 -21.988281 L 14.4375 -21.96875 C 14.664062 -21.796875 14.945312 -21.535156 15.292969 -21.191406 C 15.644531 -20.839844 15.910156 -20.535156 16.089844 -20.277344 L 16.097656 -20.269531 L 16.101562 -20.261719 C 16.464844 -19.703125 16.8125 -18.992188 17.140625 -18.121094 C 17.796875 -16.429688 18.125 -14.453125 18.125 -12.191406 L 18.09375 -10.195312 C 18.070312 -8.890625 17.667969 -7.320312 16.898438 -5.496094 C 16.464844 -4.488281 15.980469 -3.675781 15.4375 -3.0625 L 14.921875 -3.519531 L 15.472656 -3.105469 L 14.628906 -1.976562 L 13.03125 -4.035156 L 13.578125 -4.460938 L 13.578125 -3.769531 L 10.191406 -3.769531 L 10.191406 -4.460938 L 10.796875 -4.796875 L 10.964844 -4.492188 C 11.074219 -4.300781 11.292969 -3.925781 11.625 -3.375 L 11.03125 -3.015625 L 11.605469 -3.402344 C 11.789062 -3.128906 11.921875 -2.921875 12.015625 -2.777344 C 12.066406 -2.703125 12.101562 -2.640625 12.128906 -2.597656 C 12.214844 -2.449219 12.257812 -2.3125 12.257812 -2.179688 C 12.257812 -1.941406 12.164062 -1.753906 11.972656 -1.613281 C 11.894531 -1.550781 11.804688 -1.507812 11.703125 -1.484375 C 11.625 -1.464844 11.535156 -1.453125 11.433594 -1.453125 C 11.324219 -1.453125 11.195312 -1.460938 11.039062 -1.472656 C 10.894531 -1.484375 10.734375 -1.503906 10.5625 -1.527344 L 10.53125 -1.535156 C 9.425781 -1.742188 8.449219 -2.375 7.601562 -3.429688 C 6.425781 -4.941406 5.730469 -6.65625 5.515625 -8.574219 C 5.3125 -10.386719 5.210938 -11.6875 5.210938 -12.472656 C 5.210938 -14.382812 5.476562 -16.128906 6.015625 -17.714844 C 6.84375 -20.257812 8.183594 -21.855469 10.03125 -22.511719 C 10.621094 -22.71875 11.1875 -22.820312 11.734375 -22.820312 C 11.9375 -22.820312 12.15625 -22.808594 12.382812 -22.78125 Z M 12.382812 -22.78125 "/></g></g></g><g fill="#b3954d" fill-opacity="1"><g transform="translate(128.617737, 86.867627)"><g><path d="M 15.703125 -15.324219 L 15.703125 -24.160156 L 18.863281 -24.160156 L 18.863281 -15.589844 C 18.863281 -10.3125 18.839844 -7.449219 18.792969 -7.003906 C 18.597656 -5.398438 18.074219 -4.023438 17.21875 -2.871094 C 16.351562 -1.710938 15.226562 -0.882812 13.84375 -0.386719 C 12.992188 -0.0703125 12.03125 0.0898438 10.964844 0.0898438 C 10.582031 0.0898438 9.933594 0.0429688 9.015625 -0.0507812 C 8.035156 -0.148438 6.921875 -0.519531 5.683594 -1.164062 C 3.417969 -2.320312 2.078125 -4.230469 1.664062 -6.902344 L 2.347656 -7.007812 L 1.667969 -6.878906 C 1.570312 -7.390625 1.519531 -10.238281 1.519531 -15.421875 L 1.484375 -23.96875 L 2.316406 -24.085938 L 2.414062 -23.402344 L 2.277344 -24.082031 C 2.433594 -24.113281 2.9375 -24.128906 3.789062 -24.128906 C 4.609375 -24.128906 5.195312 -24.117188 5.542969 -24.09375 L 5.5 -23.402344 L 5.5 -24.09375 L 6.359375 -24.09375 L 6.359375 -15.726562 C 6.359375 -10.753906 6.367188 -8.109375 6.390625 -7.789062 L 5.699219 -7.746094 L 6.382812 -7.863281 C 6.621094 -6.453125 7.167969 -5.359375 8.011719 -4.582031 C 8.839844 -3.820312 9.914062 -3.441406 11.230469 -3.441406 C 12.382812 -3.441406 13.308594 -3.714844 14.007812 -4.257812 C 14.714844 -4.808594 15.21875 -5.648438 15.527344 -6.785156 L 15.53125 -6.804688 L 15.707031 -7.328125 L 16.363281 -7.109375 L 15.671875 -7.109375 Z M 17.085938 -15.320312 L 17.050781 -6.996094 L 16.851562 -6.386719 L 16.195312 -6.605469 L 16.863281 -6.425781 C 16.476562 -4.992188 15.808594 -3.90625 14.859375 -3.167969 C 13.90625 -2.425781 12.699219 -2.058594 11.230469 -2.058594 C 9.554688 -2.058594 8.167969 -2.558594 7.074219 -3.5625 C 6 -4.554688 5.3125 -5.910156 5.019531 -7.628906 L 5.011719 -7.664062 L 5.011719 -7.699219 C 4.988281 -8.050781 4.976562 -10.726562 4.976562 -15.726562 L 4.976562 -23.402344 L 5.667969 -23.402344 L 5.667969 -22.710938 L 5.453125 -22.710938 C 5.132812 -22.734375 4.578125 -22.746094 3.789062 -22.746094 C 3.03125 -22.746094 2.617188 -22.738281 2.550781 -22.722656 L 2.53125 -22.71875 L 2.277344 -22.683594 L 2.179688 -23.367188 L 2.871094 -23.371094 L 2.90625 -15.421875 C 2.90625 -10.324219 2.945312 -7.5625 3.027344 -7.136719 L 3.027344 -7.125 L 3.03125 -7.113281 C 3.375 -4.910156 4.46875 -3.335938 6.320312 -2.390625 C 7.402344 -1.828125 8.347656 -1.507812 9.15625 -1.425781 C 10.027344 -1.339844 10.628906 -1.296875 10.964844 -1.296875 C 11.863281 -1.296875 12.667969 -1.425781 13.378906 -1.691406 C 14.5 -2.089844 15.410156 -2.761719 16.109375 -3.699219 C 16.816406 -4.652344 17.253906 -5.800781 17.417969 -7.148438 C 17.460938 -7.546875 17.480469 -10.363281 17.480469 -15.589844 L 17.480469 -23.46875 L 18.171875 -23.46875 L 18.171875 -22.777344 L 16.394531 -22.777344 L 16.394531 -23.46875 L 17.085938 -23.46875 Z M 17.085938 -15.320312 "/></g></g></g><g fill="#b3954d" fill-opacity="1"><g transform="translate(150.042141, 86.867627)"><g><path d="M 2.351562 -24.160156 L 6.792969 -24.121094 L 6.792969 -0.121094 L 1.65625 -0.0742188 L 1.65625 -24.167969 Z M 2.339844 -22.777344 L 2.347656 -23.46875 L 3.039062 -23.46875 L 3.039062 -0.769531 L 2.347656 -0.769531 L 2.339844 -1.460938 L 6.097656 -1.496094 L 6.101562 -0.804688 L 5.410156 -0.804688 L 5.410156 -23.4375 L 6.101562 -23.4375 L 6.097656 -22.746094 Z M 2.339844 -22.777344 "/></g></g></g><g fill="#b3954d" fill-opacity="1"><g transform="translate(159.564103, 86.867627)"><g><path d="M 2.378906 -23.992188 L 18.527344 -23.992188 L 18.527344 -21.988281 L 5.207031 -1.535156 L 4.625 -1.910156 L 4.632812 -2.601562 L 18.730469 -2.496094 L 18.730469 -0.078125 L 0.3125 -0.078125 L 0.3125 -1.949219 L 13.601562 -22.472656 L 14.183594 -22.09375 L 14.179688 -21.402344 L 1.6875 -21.4375 L 1.6875 -23.992188 Z M 2.378906 -22.609375 L 2.378906 -23.300781 L 3.070312 -23.300781 L 3.070312 -22.128906 L 2.378906 -22.128906 L 2.382812 -22.820312 L 15.453125 -22.78125 L 1.585938 -1.367188 L 1.003906 -1.742188 L 1.699219 -1.742188 L 1.699219 -0.769531 L 1.003906 -0.769531 L 1.003906 -1.460938 L 18.039062 -1.460938 L 18.039062 -0.769531 L 17.347656 -0.769531 L 17.347656 -1.808594 L 18.039062 -1.808594 L 18.03125 -1.117188 L 3.359375 -1.230469 L 17.257812 -22.574219 L 17.835938 -22.195312 L 17.144531 -22.195312 L 17.144531 -23.300781 L 17.835938 -23.300781 L 17.835938 -22.609375 Z M 2.378906 -22.609375 "/></g></g></g><g fill="#faf8bc" fill-opacity="1"><g transform="translate(47.904718, 51.104471)"><g><path d="M 2.34375 -0.765625 L 2.34375 -23.46875 L 5.765625 -23.46875 L 5.765625 -23.265625 C 5.785156 -23.085938 5.796875 -22.976562 5.796875 -22.9375 C 5.796875 -22.84375 6.914062 -22.796875 9.15625 -22.796875 C 11.414062 -22.773438 12.800781 -22.695312 13.3125 -22.5625 C 14.34375 -22.40625 15.238281 -22.128906 16 -21.734375 C 16.394531 -21.523438 16.796875 -21.1875 17.203125 -20.71875 C 17.765625 -20.1875 18.164062 -19.613281 18.40625 -19 C 18.65625 -18.382812 18.8125 -17.640625 18.875 -16.765625 C 18.894531 -16.585938 18.90625 -16.410156 18.90625 -16.234375 C 18.90625 -14.753906 18.414062 -13.488281 17.4375 -12.4375 C 16.613281 -11.519531 15.609375 -10.875 14.421875 -10.5 C 13.859375 -10.363281 13.332031 -10.265625 12.84375 -10.203125 C 12.351562 -10.148438 11.164062 -10.113281 9.28125 -10.09375 L 5.796875 -10.0625 L 5.765625 -5.4375 L 5.765625 -0.765625 Z M 11.40625 -21.765625 C 11.132812 -21.828125 10.125 -21.859375 8.375 -21.859375 L 5.765625 -21.859375 L 5.765625 -11.09375 L 8.921875 -11.09375 L 12.078125 -11.125 L 12.5 -11.328125 C 13.15625 -11.617188 13.726562 -12.097656 14.21875 -12.765625 C 14.707031 -13.441406 15.039062 -14.191406 15.21875 -15.015625 C 15.3125 -15.421875 15.359375 -15.835938 15.359375 -16.265625 C 15.359375 -17.109375 15.164062 -17.957031 14.78125 -18.8125 C 14.445312 -19.550781 13.984375 -20.179688 13.390625 -20.703125 C 12.796875 -21.234375 12.132812 -21.585938 11.40625 -21.765625 Z M 11.40625 -21.765625 "/></g></g></g><g fill="#faf8bc" fill-opacity="1"><g transform="translate(68.658556, 51.104471)"><g><path d="M 7.109375 -23.109375 L 7.203125 -23.46875 L 12.875 -23.46875 L 19.140625 -0.765625 L 14.953125 -0.765625 L 14.828125 -1.28125 C 14.773438 -1.40625 14.40625 -2.753906 13.71875 -5.328125 L 12.703125 -8.890625 L 9.015625 -8.890625 L 5.40625 -8.859375 L 4.625 -6.140625 C 3.90625 -3.523438 3.535156 -2.191406 3.515625 -2.140625 L 3.125 -0.765625 L 0.9375 -0.765625 C 1.320312 -2.046875 1.691406 -3.320312 2.046875 -4.59375 C 2.804688 -7.28125 3.578125 -10.039062 4.359375 -12.875 C 5.273438 -16.226562 6.023438 -18.976562 6.609375 -21.125 C 6.671875 -21.394531 6.738281 -21.675781 6.8125 -21.96875 C 6.894531 -22.257812 6.960938 -22.507812 7.015625 -22.71875 C 7.078125 -22.925781 7.109375 -23.054688 7.109375 -23.109375 Z M 9.59375 -20.21875 C 9.226562 -21.445312 9.03125 -22.0625 9 -22.0625 C 8.96875 -22.0625 8.921875 -21.953125 8.859375 -21.734375 C 8.703125 -20.898438 7.847656 -17.769531 6.296875 -12.34375 C 5.898438 -10.90625 5.703125 -10.175781 5.703125 -10.15625 C 5.703125 -10.132812 6.828125 -10.125 9.078125 -10.125 C 11.335938 -10.125 12.46875 -10.132812 12.46875 -10.15625 C 12.46875 -10.3125 11.507812 -13.664062 9.59375 -20.21875 Z M 9.59375 -20.21875 "/></g></g></g><g fill="#faf8bc" fill-opacity="1"><g transform="translate(89.211233, 51.104471)"><g><path d="M 2.34375 -0.765625 L 2.34375 -23.46875 L 5.96875 -23.46875 L 5.96875 -22.703125 L 9.515625 -22.671875 C 11.890625 -22.648438 13.265625 -22.613281 13.640625 -22.5625 C 14.710938 -22.425781 15.609375 -22.179688 16.328125 -21.828125 C 17.578125 -21.222656 18.414062 -20.296875 18.84375 -19.046875 C 18.957031 -18.691406 19.015625 -18.117188 19.015625 -17.328125 C 19.015625 -16.304688 18.832031 -15.445312 18.46875 -14.75 C 17.78125 -13.300781 16.488281 -12.441406 14.59375 -12.171875 L 14.109375 -12.109375 L 15.484375 -9.359375 C 16.085938 -8.128906 16.703125 -6.941406 17.328125 -5.796875 C 17.734375 -5.085938 18.171875 -4.25 18.640625 -3.28125 C 19.265625 -2.050781 19.613281 -1.367188 19.6875 -1.234375 L 19.921875 -0.765625 L 16 -0.765625 L 14.890625 -2.84375 C 14.304688 -3.96875 13.367188 -5.828125 12.078125 -8.421875 L 10.328125 -11.96875 L 5.96875 -11.96875 L 5.96875 -0.765625 Z M 12.140625 -21.5625 C 11.828125 -21.675781 10.707031 -21.742188 8.78125 -21.765625 L 5.96875 -21.765625 L 5.96875 -12.875 L 9.015625 -12.84375 C 11.023438 -12.84375 12.164062 -12.875 12.4375 -12.9375 C 13 -13.09375 13.507812 -13.363281 13.96875 -13.75 C 14.425781 -14.144531 14.765625 -14.59375 14.984375 -15.09375 C 15.316406 -15.800781 15.484375 -16.523438 15.484375 -17.265625 C 15.484375 -17.398438 15.460938 -17.726562 15.421875 -18.25 C 15.378906 -18.78125 15.085938 -19.367188 14.546875 -20.015625 C 13.941406 -20.734375 13.140625 -21.25 12.140625 -21.5625 Z M 12.140625 -21.5625 "/></g></g></g><g fill="#faf8bc" fill-opacity="1"><g transform="translate(110.937387, 51.104471)"><g><path d="M 7.109375 -23.109375 L 7.203125 -23.46875 L 12.875 -23.46875 L 19.140625 -0.765625 L 14.953125 -0.765625 L 14.828125 -1.28125 C 14.773438 -1.40625 14.40625 -2.753906 13.71875 -5.328125 L 12.703125 -8.890625 L 9.015625 -8.890625 L 5.40625 -8.859375 L 4.625 -6.140625 C 3.90625 -3.523438 3.535156 -2.191406 3.515625 -2.140625 L 3.125 -0.765625 L 0.9375 -0.765625 C 1.320312 -2.046875 1.691406 -3.320312 2.046875 -4.59375 C 2.804688 -7.28125 3.578125 -10.039062 4.359375 -12.875 C 5.273438 -16.226562 6.023438 -18.976562 6.609375 -21.125 C 6.671875 -21.394531 6.738281 -21.675781 6.8125 -21.96875 C 6.894531 -22.257812 6.960938 -22.507812 7.015625 -22.71875 C 7.078125 -22.925781 7.109375 -23.054688 7.109375 -23.109375 Z M 9.59375 -20.21875 C 9.226562 -21.445312 9.03125 -22.0625 9 -22.0625 C 8.96875 -22.0625 8.921875 -21.953125 8.859375 -21.734375 C 8.703125 -20.898438 7.847656 -17.769531 6.296875 -12.34375 C 5.898438 -10.90625 5.703125 -10.175781 5.703125 -10.15625 C 5.703125 -10.132812 6.828125 -10.125 9.078125 -10.125 C 11.335938 -10.125 12.46875 -10.132812 12.46875 -10.15625 C 12.46875 -10.3125 11.507812 -13.664062 9.59375 -20.21875 Z M 9.59375 -20.21875 "/></g></g></g><g fill="#faf8bc" fill-opacity="1"><g transform="translate(131.490064, 51.104471)"><g><path d="M 2.34375 -12.90625 L 2.34375 -23.46875 L 5.96875 -23.46875 L 5.96875 -22.671875 L 8.625 -22.671875 C 10.832031 -22.671875 12.503906 -22.59375 13.640625 -22.4375 C 15.390625 -22.207031 16.691406 -21.644531 17.546875 -20.75 C 18.410156 -19.863281 18.84375 -18.644531 18.84375 -17.09375 C 18.84375 -16.207031 18.675781 -15.425781 18.34375 -14.75 C 17.851562 -13.8125 17.023438 -13.039062 15.859375 -12.4375 C 15.523438 -12.257812 15.359375 -12.148438 15.359375 -12.109375 C 15.359375 -12.085938 15.378906 -12.0625 15.421875 -12.03125 C 15.441406 -12.03125 15.675781 -11.941406 16.125 -11.765625 C 16.820312 -11.492188 17.429688 -11.085938 17.953125 -10.546875 C 18.484375 -10.015625 18.878906 -9.414062 19.140625 -8.75 C 19.390625 -8.144531 19.515625 -7.421875 19.515625 -6.578125 C 19.515625 -6.546875 19.515625 -6.53125 19.515625 -6.53125 C 19.515625 -6.53125 19.515625 -6.519531 19.515625 -6.5 L 19.515625 -6.40625 C 19.515625 -5.550781 19.335938 -4.78125 18.984375 -4.09375 C 18.773438 -3.6875 18.445312 -3.257812 18 -2.8125 C 16.84375 -1.695312 15.179688 -1.03125 13.015625 -0.8125 C 12.492188 -0.757812 10.859375 -0.734375 8.109375 -0.734375 C 6.035156 -0.753906 4.804688 -0.765625 4.421875 -0.765625 C 4.046875 -0.765625 3.78125 -0.8125 3.625 -0.90625 C 3.175781 -1.15625 2.816406 -1.488281 2.546875 -1.90625 L 2.375 -2.28125 Z M 11.703125 -21.5625 C 11.429688 -21.644531 10.425781 -21.6875 8.6875 -21.6875 C 6.875 -21.6875 5.96875 -21.664062 5.96875 -21.625 C 5.96875 -21.625 5.96875 -21.613281 5.96875 -21.59375 L 5.96875 -21.5625 C 5.96875 -21.539062 5.96875 -21.53125 5.96875 -21.53125 L 5.96875 -21.5 C 5.96875 -21.46875 5.96875 -21.453125 5.96875 -21.453125 L 5.96875 -21.421875 C 5.96875 -21.421875 5.96875 -21.410156 5.96875 -21.390625 L 5.96875 -21.296875 C 5.96875 -21.296875 5.96875 -21.285156 5.96875 -21.265625 L 5.96875 -20.953125 C 5.96875 -20.953125 5.96875 -20.941406 5.96875 -20.921875 C 5.96875 -20.898438 5.96875 -20.878906 5.96875 -20.859375 C 5.96875 -20.835938 5.96875 -20.828125 5.96875 -20.828125 L 5.96875 -20.796875 C 5.96875 -20.796875 5.96875 -20.78125 5.96875 -20.75 L 5.96875 -20.625 C 5.96875 -20.601562 5.96875 -20.59375 5.96875 -20.59375 L 5.96875 -18.578125 C 5.96875 -18.578125 5.96875 -18.566406 5.96875 -18.546875 C 5.96875 -18.523438 5.96875 -18.5 5.96875 -18.46875 C 5.96875 -18.445312 5.96875 -18.4375 5.96875 -18.4375 L 5.96875 -18.40625 C 5.96875 -18.382812 5.96875 -18.375 5.96875 -18.375 L 5.96875 -18.203125 C 5.96875 -18.179688 5.96875 -18.171875 5.96875 -18.171875 L 5.96875 -17.4375 C 5.96875 -17.414062 5.96875 -17.40625 5.96875 -17.40625 C 5.96875 -17.40625 5.96875 -17.394531 5.96875 -17.375 L 5.96875 -17.328125 C 5.96875 -17.304688 5.96875 -17.296875 5.96875 -17.296875 L 5.96875 -17.0625 C 5.96875 -17.039062 5.96875 -17.03125 5.96875 -17.03125 C 5.96875 -17.007812 5.96875 -17 5.96875 -17 L 5.96875 -16.734375 C 5.96875 -16.734375 5.96875 -16.722656 5.96875 -16.703125 C 5.96875 -16.703125 5.96875 -16.691406 5.96875 -16.671875 C 5.96875 -16.671875 5.96875 -16.65625 5.96875 -16.625 C 5.96875 -16.601562 5.96875 -16.59375 5.96875 -16.59375 C 5.96875 -16.570312 5.96875 -16.5625 5.96875 -16.5625 L 5.96875 -16.53125 C 5.96875 -16.507812 5.96875 -16.488281 5.96875 -16.46875 L 5.96875 -16.265625 C 5.96875 -16.265625 5.96875 -16.253906 5.96875 -16.234375 L 5.96875 -16 C 5.96875 -16 5.96875 -15.984375 5.96875 -15.953125 C 5.96875 -15.953125 5.96875 -15.941406 5.96875 -15.921875 C 5.96875 -15.898438 5.96875 -15.890625 5.96875 -15.890625 L 5.96875 -15.828125 C 5.96875 -15.828125 5.96875 -15.816406 5.96875 -15.796875 L 5.96875 -15.625 C 5.96875 -15.625 5.96875 -15.613281 5.96875 -15.59375 C 5.96875 -15.59375 5.96875 -15.582031 5.96875 -15.5625 C 5.96875 -15.539062 5.96875 -15.53125 5.96875 -15.53125 L 5.96875 -15.453125 C 5.96875 -15.453125 5.96875 -15.441406 5.96875 -15.421875 L 5.96875 -14.921875 C 5.96875 -14.921875 5.96875 -14.910156 5.96875 -14.890625 C 5.96875 -14.890625 5.96875 -14.878906 5.96875 -14.859375 C 5.96875 -14.859375 5.96875 -14.847656 5.96875 -14.828125 C 5.96875 -14.796875 5.96875 -14.78125 5.96875 -14.78125 C 5.96875 -14.757812 5.96875 -14.75 5.96875 -14.75 L 5.96875 -14.71875 C 5.96875 -14.695312 5.96875 -14.675781 5.96875 -14.65625 L 5.96875 -14.484375 C 5.96875 -14.484375 5.96875 -14.472656 5.96875 -14.453125 L 5.96875 -13.34375 C 5.96875 -13.320312 5.96875 -13.3125 5.96875 -13.3125 L 5.96875 -13.28125 C 5.96875 -13.257812 5.96875 -13.25 5.96875 -13.25 L 5.96875 -12.8125 L 8.859375 -12.8125 C 10.753906 -12.8125 11.835938 -12.84375 12.109375 -12.90625 C 12.796875 -13.082031 13.40625 -13.421875 13.9375 -13.921875 C 14.476562 -14.429688 14.828125 -15.019531 14.984375 -15.6875 C 15.078125 -15.957031 15.125 -16.328125 15.125 -16.796875 C 15.125 -16.835938 15.117188 -17.007812 15.109375 -17.3125 C 15.097656 -17.613281 15.046875 -17.945312 14.953125 -18.3125 C 14.773438 -19.09375 14.398438 -19.765625 13.828125 -20.328125 C 13.265625 -20.898438 12.554688 -21.3125 11.703125 -21.5625 Z M 12.546875 -11.5 C 12.203125 -11.570312 11.023438 -11.609375 9.015625 -11.609375 L 5.96875 -11.609375 L 5.96875 -11.46875 C 5.945312 -11.132812 5.9375 -9.460938 5.9375 -6.453125 C 5.9375 -3.441406 5.945312 -1.90625 5.96875 -1.84375 L 5.96875 -1.671875 L 9.046875 -1.671875 C 10.523438 -1.691406 11.425781 -1.707031 11.75 -1.71875 C 12.070312 -1.738281 12.359375 -1.789062 12.609375 -1.875 C 13.273438 -2.125 13.851562 -2.484375 14.34375 -2.953125 C 15.15625 -3.773438 15.613281 -4.789062 15.71875 -6 C 15.75 -6.269531 15.765625 -6.523438 15.765625 -6.765625 C 15.765625 -8.222656 15.257812 -9.457031 14.25 -10.46875 C 13.664062 -11.039062 13.097656 -11.382812 12.546875 -11.5 Z M 12.546875 -11.5 "/></g></g></g><g fill="#faf8bc" fill-opacity="1"><g transform="translate(153.585022, 51.104471)"><g><path d="M 10.09375 -23.53125 C 10.5 -23.582031 10.910156 -23.609375 11.328125 -23.609375 C 12.023438 -23.609375 12.847656 -23.53125 13.796875 -23.375 C 14.742188 -23.21875 15.65625 -22.925781 16.53125 -22.5 C 18.1875 -21.695312 19.460938 -20.429688 20.359375 -18.703125 C 21.273438 -16.898438 21.734375 -14.644531 21.734375 -11.9375 L 21.734375 -11.765625 C 21.734375 -11.765625 21.734375 -11.753906 21.734375 -11.734375 L 21.734375 -11.671875 C 21.734375 -11.648438 21.734375 -11.640625 21.734375 -11.640625 L 21.734375 -11.203125 C 21.660156 -9.816406 21.488281 -8.597656 21.21875 -7.546875 C 20.863281 -6.242188 20.238281 -5.046875 19.34375 -3.953125 C 18.050781 -2.328125 16.296875 -1.28125 14.078125 -0.8125 C 13.609375 -0.695312 12.835938 -0.640625 11.765625 -0.640625 C 10.398438 -0.640625 9.269531 -0.757812 8.375 -1 C 7.101562 -1.34375 5.960938 -1.941406 4.953125 -2.796875 C 3.953125 -3.660156 3.207031 -4.6875 2.71875 -5.875 C 2.039062 -7.539062 1.703125 -9.503906 1.703125 -11.765625 L 1.703125 -11.796875 C 1.703125 -11.796875 1.703125 -11.8125 1.703125 -11.84375 L 1.703125 -11.875 C 1.703125 -11.875 1.703125 -11.882812 1.703125 -11.90625 L 1.703125 -11.9375 C 1.703125 -11.9375 1.703125 -11.945312 1.703125 -11.96875 L 1.703125 -12 C 1.703125 -12 1.703125 -12.007812 1.703125 -12.03125 L 1.703125 -12.078125 C 1.703125 -12.078125 1.703125 -12.085938 1.703125 -12.109375 L 1.703125 -12.375 C 1.753906 -14.71875 2.191406 -16.738281 3.015625 -18.4375 C 3.304688 -19.113281 3.71875 -19.773438 4.25 -20.421875 C 4.789062 -21.066406 5.363281 -21.59375 5.96875 -22 C 7.175781 -22.84375 8.550781 -23.351562 10.09375 -23.53125 Z M 12.578125 -22.359375 C 12.285156 -22.429688 11.992188 -22.46875 11.703125 -22.46875 C 11.210938 -22.46875 10.617188 -22.347656 9.921875 -22.109375 C 9.234375 -21.878906 8.609375 -21.425781 8.046875 -20.75 C 6.972656 -19.457031 6.3125 -17.941406 6.0625 -16.203125 C 5.820312 -14.472656 5.703125 -13.128906 5.703125 -12.171875 C 5.703125 -10.722656 5.859375 -9.289062 6.171875 -7.875 C 6.597656 -6.3125 7.21875 -4.976562 8.03125 -3.875 C 8.84375 -2.769531 9.765625 -2.09375 10.796875 -1.84375 C 11.171875 -1.75 11.539062 -1.703125 11.90625 -1.703125 C 12.351562 -1.703125 12.800781 -1.769531 13.25 -1.90625 C 14.632812 -2.332031 15.710938 -3.546875 16.484375 -5.546875 C 17.253906 -7.546875 17.640625 -9.785156 17.640625 -12.265625 L 17.640625 -12.640625 C 17.640625 -12.660156 17.640625 -12.671875 17.640625 -12.671875 L 17.640625 -13.109375 C 17.597656 -14.828125 17.363281 -16.335938 16.9375 -17.640625 C 16.507812 -18.910156 15.910156 -19.953125 15.140625 -20.765625 C 14.367188 -21.585938 13.515625 -22.117188 12.578125 -22.359375 Z M 12.578125 -22.359375 "/></g></g></g><g fill="#faf8bc" fill-opacity="1"><g transform="translate(178.093997, 51.104471)"><g><path d="M 2.34375 -23.46875 L 5.828125 -23.46875 C 5.828125 -8.988281 5.84375 -1.75 5.875 -1.75 L 16.15625 -1.703125 L 16.15625 -0.765625 L 4.09375 -0.8125 C 2.925781 -0.8125 2.34375 -1.515625 2.34375 -2.921875 Z M 2.34375 -23.46875 "/></g></g></g><g fill="#faf8bc" fill-opacity="1"><g transform="translate(196.333238, 51.104471)"><g><path d="M 7.109375 -23.109375 L 7.203125 -23.46875 L 12.875 -23.46875 L 19.140625 -0.765625 L 14.953125 -0.765625 L 14.828125 -1.28125 C 14.773438 -1.40625 14.40625 -2.753906 13.71875 -5.328125 L 12.703125 -8.890625 L 9.015625 -8.890625 L 5.40625 -8.859375 L 4.625 -6.140625 C 3.90625 -3.523438 3.535156 -2.191406 3.515625 -2.140625 L 3.125 -0.765625 L 0.9375 -0.765625 C 1.320312 -2.046875 1.691406 -3.320312 2.046875 -4.59375 C 2.804688 -7.28125 3.578125 -10.039062 4.359375 -12.875 C 5.273438 -16.226562 6.023438 -18.976562 6.609375 -21.125 C 6.671875 -21.394531 6.738281 -21.675781 6.8125 -21.96875 C 6.894531 -22.257812 6.960938 -22.507812 7.015625 -22.71875 C 7.078125 -22.925781 7.109375 -23.054688 7.109375 -23.109375 Z M 9.59375 -20.21875 C 9.226562 -21.445312 9.03125 -22.0625 9 -22.0625 C 8.96875 -22.0625 8.921875 -21.953125 8.859375 -21.734375 C 8.703125 -20.898438 7.847656 -17.769531 6.296875 -12.34375 C 5.898438 -10.90625 5.703125 -10.175781 5.703125 -10.15625 C 5.703125 -10.132812 6.828125 -10.125 9.078125 -10.125 C 11.335938 -10.125 12.46875 -10.132812 12.46875 -10.15625 C 12.46875 -10.3125 11.507812 -13.664062 9.59375 -20.21875 Z M 9.59375 -20.21875 "/></g></g></g><g fill="#faf8bc" fill-opacity="1"><g transform="translate(216.885915, 51.104471)"><g><path d="M 8.453125 -23.640625 C 8.535156 -23.660156 8.691406 -23.671875 8.921875 -23.671875 C 9.140625 -23.671875 9.414062 -23.660156 9.75 -23.640625 C 11.144531 -23.566406 12.273438 -23.253906 13.140625 -22.703125 C 13.816406 -22.273438 14.363281 -21.75 14.78125 -21.125 C 15.34375 -20.269531 15.65625 -19.429688 15.71875 -18.609375 L 15.828125 -18.203125 L 15.0625 -18.203125 C 14.539062 -18.203125 14.269531 -18.238281 14.25 -18.3125 C 14.25 -18.3125 14.242188 -18.335938 14.234375 -18.390625 C 14.222656 -18.441406 14.210938 -18.503906 14.203125 -18.578125 C 14.191406 -18.660156 14.175781 -18.738281 14.15625 -18.8125 C 14.0625 -19.320312 13.832031 -19.832031 13.46875 -20.34375 C 13.113281 -20.863281 12.726562 -21.269531 12.3125 -21.5625 C 11.707031 -21.9375 10.96875 -22.148438 10.09375 -22.203125 C 10.09375 -22.203125 10.082031 -22.203125 10.0625 -22.203125 L 9.921875 -22.203125 C 9.003906 -22.203125 8.191406 -22.019531 7.484375 -21.65625 C 6.765625 -21.300781 6.257812 -20.832031 5.96875 -20.25 C 5.832031 -19.976562 5.765625 -19.597656 5.765625 -19.109375 C 5.765625 -19.109375 5.765625 -19.097656 5.765625 -19.078125 C 5.765625 -19.078125 5.765625 -19.066406 5.765625 -19.046875 C 5.765625 -19.023438 5.765625 -19.015625 5.765625 -19.015625 L 5.765625 -18.90625 C 5.765625 -18.351562 5.820312 -17.929688 5.9375 -17.640625 C 6.175781 -16.992188 6.578125 -16.46875 7.140625 -16.0625 C 7.453125 -15.8125 8.46875 -15.253906 10.1875 -14.390625 C 11.882812 -13.515625 13.046875 -12.882812 13.671875 -12.5 C 14.304688 -12.125 14.9375 -11.625 15.5625 -11 C 16.425781 -10.144531 16.914062 -9.171875 17.03125 -8.078125 C 17.050781 -7.859375 17.0625 -7.632812 17.0625 -7.40625 C 17.0625 -7.007812 17.015625 -6.53125 16.921875 -5.96875 C 16.835938 -5.40625 16.6875 -4.898438 16.46875 -4.453125 C 15.65625 -2.847656 14.269531 -1.753906 12.3125 -1.171875 C 11.363281 -0.878906 10.554688 -0.722656 9.890625 -0.703125 C 9.222656 -0.679688 8.8125 -0.671875 8.65625 -0.671875 C 7.644531 -0.671875 6.769531 -0.769531 6.03125 -0.96875 C 5.050781 -1.21875 4.238281 -1.664062 3.59375 -2.3125 C 3.34375 -2.601562 3.15625 -2.832031 3.03125 -3 C 2.90625 -3.164062 2.722656 -3.472656 2.484375 -3.921875 C 2.304688 -4.347656 2.070312 -4.960938 1.78125 -5.765625 C 1.488281 -6.566406 1.34375 -7.023438 1.34375 -7.140625 C 1.34375 -7.179688 1.609375 -7.203125 2.140625 -7.203125 C 2.546875 -7.203125 2.789062 -7.195312 2.875 -7.1875 C 2.96875 -7.175781 3.015625 -7.140625 3.015625 -7.078125 C 3.015625 -6.921875 3.101562 -6.585938 3.28125 -6.078125 C 3.457031 -5.578125 3.613281 -5.160156 3.75 -4.828125 C 4.0625 -4.242188 4.390625 -3.78125 4.734375 -3.4375 C 5.085938 -3.09375 5.546875 -2.773438 6.109375 -2.484375 C 6.910156 -2.078125 7.78125 -1.875 8.71875 -1.875 C 9.300781 -1.875 9.757812 -1.929688 10.09375 -2.046875 C 10.914062 -2.316406 11.566406 -2.804688 12.046875 -3.515625 C 12.535156 -4.234375 12.78125 -5.039062 12.78125 -5.9375 C 12.78125 -5.9375 12.78125 -5.945312 12.78125 -5.96875 C 12.78125 -5.96875 12.78125 -5.976562 12.78125 -6 L 12.78125 -6.0625 C 12.75 -6.664062 12.625 -7.191406 12.40625 -7.640625 C 11.820312 -8.785156 10 -10.207031 6.9375 -11.90625 C 6 -12.394531 5.296875 -12.816406 4.828125 -13.171875 C 3.460938 -14.179688 2.601562 -15.332031 2.25 -16.625 C 2.15625 -16.96875 2.109375 -17.398438 2.109375 -17.921875 C 2.109375 -18.441406 2.164062 -18.882812 2.28125 -19.25 C 2.613281 -20.4375 3.320312 -21.414062 4.40625 -22.1875 C 5.488281 -22.957031 6.835938 -23.441406 8.453125 -23.640625 Z M 8.453125 -23.640625 "/></g></g></g><g fill="#faf8bc" fill-opacity="1"><g transform="translate(104.343448, 86.867627)"><g><path d="M 10.09375 -23.5 C 10.582031 -23.570312 11.070312 -23.609375 11.5625 -23.609375 C 12.101562 -23.609375 12.785156 -23.546875 13.609375 -23.421875 C 14.441406 -23.296875 15.316406 -23.019531 16.234375 -22.59375 C 18.304688 -21.550781 19.78125 -19.820312 20.65625 -17.40625 C 21.238281 -15.769531 21.53125 -14.035156 21.53125 -12.203125 C 21.53125 -11.847656 21.519531 -11.488281 21.5 -11.125 C 21.363281 -8.71875 20.847656 -6.753906 19.953125 -5.234375 C 19.054688 -3.710938 17.78125 -2.5625 16.125 -1.78125 C 15.851562 -1.664062 15.71875 -1.597656 15.71875 -1.578125 C 15.71875 -1.554688 16.035156 -1.109375 16.671875 -0.234375 C 17.316406 0.640625 17.785156 1.253906 18.078125 1.609375 C 18.296875 1.898438 18.40625 2.054688 18.40625 2.078125 C 18.40625 2.097656 17.789062 2.109375 16.5625 2.109375 L 14.6875 2.109375 L 14.515625 1.875 C 14.429688 1.851562 14.039062 1.363281 13.34375 0.40625 L 12.4375 -0.84375 L 11.84375 -0.84375 C 10.71875 -0.84375 9.707031 -0.929688 8.8125 -1.109375 C 7.519531 -1.378906 6.359375 -1.890625 5.328125 -2.640625 C 4.296875 -3.398438 3.523438 -4.296875 3.015625 -5.328125 C 2.367188 -6.628906 1.957031 -8.304688 1.78125 -10.359375 C 1.726562 -11.003906 1.703125 -11.640625 1.703125 -12.265625 C 1.703125 -13.179688 1.757812 -14.054688 1.875 -14.890625 C 2.300781 -17.859375 3.578125 -20.125 5.703125 -21.6875 C 6.953125 -22.65625 8.414062 -23.257812 10.09375 -23.5 Z M 12.3125 -22.09375 C 12.101562 -22.113281 11.910156 -22.125 11.734375 -22.125 C 11.265625 -22.125 10.773438 -22.035156 10.265625 -21.859375 C 8.628906 -21.273438 7.429688 -19.820312 6.671875 -17.5 C 6.160156 -15.976562 5.90625 -14.300781 5.90625 -12.46875 C 5.90625 -11.707031 6.003906 -10.429688 6.203125 -8.640625 C 6.398438 -6.859375 7.046875 -5.265625 8.140625 -3.859375 C 8.878906 -2.941406 9.71875 -2.394531 10.65625 -2.21875 C 10.8125 -2.1875 10.957031 -2.164062 11.09375 -2.15625 C 11.226562 -2.144531 11.335938 -2.140625 11.421875 -2.140625 C 11.515625 -2.140625 11.5625 -2.148438 11.5625 -2.171875 C 11.5625 -2.203125 11.382812 -2.484375 11.03125 -3.015625 C 10.695312 -3.578125 10.472656 -3.957031 10.359375 -4.15625 L 10.1875 -4.453125 L 13.578125 -4.453125 L 14.625 -3.125 L 14.921875 -3.515625 C 15.410156 -4.078125 15.859375 -4.828125 16.265625 -5.765625 C 17.003906 -7.503906 17.382812 -8.984375 17.40625 -10.203125 C 17.425781 -11.421875 17.4375 -12.085938 17.4375 -12.203125 C 17.4375 -14.367188 17.125 -16.257812 16.5 -17.875 C 16.1875 -18.695312 15.863281 -19.367188 15.53125 -19.890625 C 15.375 -20.109375 15.128906 -20.378906 14.796875 -20.703125 C 14.472656 -21.023438 14.210938 -21.265625 14.015625 -21.421875 C 13.503906 -21.753906 12.9375 -21.976562 12.3125 -22.09375 Z M 12.3125 -22.09375 "/></g></g></g><g fill="#faf8bc" fill-opacity="1"><g transform="translate(128.617737, 86.867627)"><g><path d="M 16.390625 -15.328125 L 16.390625 -23.46875 L 18.171875 -23.46875 L 18.171875 -15.59375 C 18.171875 -10.34375 18.148438 -7.503906 18.109375 -7.078125 C 17.929688 -5.597656 17.445312 -4.332031 16.65625 -3.28125 C 15.875 -2.226562 14.859375 -1.484375 13.609375 -1.046875 C 12.828125 -0.753906 11.945312 -0.609375 10.96875 -0.609375 C 10.601562 -0.609375 9.972656 -0.648438 9.078125 -0.734375 C 8.191406 -0.828125 7.164062 -1.175781 6 -1.78125 C 3.945312 -2.832031 2.726562 -4.578125 2.34375 -7.015625 C 2.257812 -7.484375 2.21875 -10.285156 2.21875 -15.421875 L 2.171875 -23.375 L 2.421875 -23.40625 C 2.523438 -23.425781 2.976562 -23.4375 3.78125 -23.4375 C 4.59375 -23.4375 5.164062 -23.425781 5.5 -23.40625 L 5.671875 -23.40625 L 5.671875 -15.71875 C 5.671875 -10.738281 5.679688 -8.082031 5.703125 -7.75 C 5.972656 -6.1875 6.585938 -4.960938 7.546875 -4.078125 C 8.503906 -3.191406 9.734375 -2.75 11.234375 -2.75 C 13.847656 -2.75 15.503906 -4.035156 16.203125 -6.609375 L 16.359375 -7.109375 Z M 16.390625 -15.328125 "/></g></g></g><g fill="#faf8bc" fill-opacity="1"><g transform="translate(150.042141, 86.867627)"><g><path d="M 2.34375 -23.46875 L 6.109375 -23.4375 L 6.109375 -0.8125 L 2.34375 -0.765625 Z M 2.34375 -23.46875 "/></g></g></g><g fill="#faf8bc" fill-opacity="1"><g transform="translate(159.564103, 86.867627)"><g><path d="M 2.375 -23.296875 L 17.84375 -23.296875 L 17.84375 -22.203125 L 4.625 -1.90625 L 18.046875 -1.8125 L 18.046875 -0.765625 L 1 -0.765625 L 1 -1.75 L 14.1875 -22.09375 L 2.375 -22.125 Z M 2.375 -23.296875 "/></g></g></g></svg>