<svg xmlns="http://www.w3.org/2000/svg" xmlns:xlink="http://www.w3.org/1999/xlink" width="76" zoomAndPan="magnify" viewBox="0 0 56.879997 56.999997" height="76" preserveAspectRatio="xMidYMid meet" version="1.0"><defs><clipPath id="8b8cd16ab6"><path d="M 14 4 L 55.507812 4 L 55.507812 48 L 14 48 Z M 14 4 " clip-rule="nonzero"/></clipPath><clipPath id="2047ccee64"><path d="M 22 16 L 53 16 L 53 56.9375 L 22 56.9375 Z M 22 16 " clip-rule="nonzero"/></clipPath><clipPath id="21471b0fbc"><path d="M 1.0625 16 L 24 16 L 24 56.9375 L 1.0625 56.9375 Z M 1.0625 16 " clip-rule="nonzero"/></clipPath><clipPath id="8308cbe1ca"><path d="M 8 27 L 43 27 L 43 56.9375 L 8 56.9375 Z M 8 27 " clip-rule="nonzero"/></clipPath><clipPath id="25e3b2c6ff"><path d="M 13 38 L 39 38 L 39 56.9375 L 13 56.9375 Z M 13 38 " clip-rule="nonzero"/></clipPath><clipPath id="8c1eec41d9"><path d="M 18 44 L 38 44 L 38 56.9375 L 18 56.9375 Z M 18 44 " clip-rule="nonzero"/></clipPath><clipPath id="88bfc13b67"><path d="M 8 27 L 38 27 L 38 56.9375 L 8 56.9375 Z M 8 27 " clip-rule="nonzero"/></clipPath><clipPath id="d93c4fa6f9"><path d="M 3 27 L 38 27 L 38 56.9375 L 3 56.9375 Z M 3 27 " clip-rule="nonzero"/></clipPath><clipPath id="9c4102a4b2"><path d="M 7 38 L 33 38 L 33 56.9375 L 7 56.9375 Z M 7 38 " clip-rule="nonzero"/></clipPath><clipPath id="ac46d4c2bd"><path d="M 8 44 L 28 44 L 28 56.9375 L 8 56.9375 Z M 8 44 " clip-rule="nonzero"/></clipPath><clipPath id="b638f821ba"><path d="M 8 27 L 38 27 L 38 56.9375 L 8 56.9375 Z M 8 27 " clip-rule="nonzero"/></clipPath><clipPath id="70878bdd3c"><path d="M 14 56 L 16 56 L 16 56.9375 L 14 56.9375 Z M 14 56 " clip-rule="nonzero"/></clipPath><clipPath id="73a55d98cb"><path d="M 30 56 L 32 56 L 32 56.9375 L 30 56.9375 Z M 30 56 " clip-rule="nonzero"/></clipPath><clipPath id="4cc5531cdd"><path d="M 1.0625 0.0585938 L 55.507812 0.0585938 L 55.507812 56 L 1.0625 56 Z M 1.0625 0.0585938 " clip-rule="nonzero"/></clipPath><clipPath id="d01e5d4395"><path d="M 6 9 L 55.507812 9 L 55.507812 51 L 6 51 Z M 6 9 " clip-rule="nonzero"/></clipPath><clipPath id="9e672cfd12"><path d="M 54 0.0585938 L 55.507812 0.0585938 L 55.507812 50 L 54 50 Z M 54 0.0585938 " clip-rule="nonzero"/></clipPath></defs><g clip-path="url(#8b8cd16ab6)"><path stroke-linecap="butt" transform="matrix(-0.00311638, 0, 0, -0.00312304, 61.751317, 61.565221)" fill="none" stroke-linejoin="miter" d="M 2900.922946 10027.148338 L 8708.190839 11498.069229 L 9580.597153 12593.755198 " stroke="#f03e1e" stroke-width="399.12" stroke-opacity="1" stroke-miterlimit="10"/></g><g clip-path="url(#2047ccee64)"><path stroke-linecap="butt" transform="matrix(-0.00311638, 0, 0, -0.00312304, 61.751317, 61.565221)" fill="none" stroke-linejoin="miter" d="M 5876.63069 11709.451568 C 5876.63069 11709.451568 9965.408559 8359.854504 9850.090483 1684.425256 " stroke="#b2b1b1" stroke-width="199.56" stroke-opacity="1" stroke-miterlimit="10"/></g><g clip-path="url(#21471b0fbc)"><path stroke-linecap="butt" transform="matrix(-0.00361625, 0, 0, -0.00362398, 61.751317, 61.565221)" fill="none" stroke-linejoin="miter" d="M 16300.49597 10090.874487 C 16300.49597 10090.874487 12776.902215 7164.404476 12876.280089 1411.708178 " stroke="#b2b1b1" stroke-width="171.974" stroke-opacity="1" stroke-miterlimit="10"/></g><g clip-path="url(#8308cbe1ca)"><path stroke-linecap="butt" transform="matrix(-0.00311638, 0, 0, -0.00312304, 61.751317, 61.565221)" fill="none" stroke-linejoin="miter" d="M 8151.655777 8750.098822 L 14941.63423 1638.146283 " stroke="#b2b1b1" stroke-width="149.669998" stroke-opacity="1" stroke-miterlimit="10"/></g><g clip-path="url(#25e3b2c6ff)"><path stroke-linecap="butt" transform="matrix(-0.00311638, 0, 0, -0.00312304, 61.751317, 61.565221)" fill="none" stroke-linejoin="miter" d="M 9464.02562 5321.702426 L 13262.001384 1581.861045 " stroke="#b2b1b1" stroke-width="149.669998" stroke-opacity="1" stroke-miterlimit="10"/></g><g clip-path="url(#8c1eec41d9)"><path stroke-linecap="butt" transform="matrix(-0.00311638, 0, 0, -0.00312304, 61.751317, 61.565221)" fill="none" stroke-linejoin="miter" d="M 9787.417616 3336.709693 L 11604.93077 1581.861045 " stroke="#b2b1b1" stroke-width="149.669998" stroke-opacity="1" stroke-miterlimit="10"/></g><g clip-path="url(#88bfc13b67)"><path stroke-linecap="butt" transform="matrix(-0.00311638, 0, 0, -0.00312304, 61.751317, 61.565221)" fill="none" stroke-linejoin="miter" d="M 9936.57904 8695.064367 L 14990.519067 3180.361809 " stroke="#b2b1b1" stroke-width="149.669998" stroke-opacity="1" stroke-miterlimit="10"/></g><path stroke-linecap="butt" transform="matrix(-0.00311638, 0, 0, -0.00312304, 61.751317, 61.565221)" fill="none" stroke-linejoin="miter" d="M 11517.188756 8763.857436 L 15204.860273 4751.345346 " stroke="#b2b1b1" stroke-width="149.669998" stroke-opacity="1" stroke-miterlimit="10"/><path stroke-linecap="butt" transform="matrix(-0.00311638, 0, 0, -0.00312304, 61.751317, 61.565221)" fill="none" stroke-linejoin="miter" d="M 13120.360704 8718.829246 L 15516.971153 6040.902691 " stroke="#b2b1b1" stroke-width="149.669998" stroke-opacity="1" stroke-miterlimit="10"/><path stroke-linecap="butt" transform="matrix(-0.00311638, 0, 0, -0.00312304, 61.751317, 61.565221)" fill="none" stroke-linejoin="miter" d="M 14910.297797 8718.829246 L 15900.529101 7165.356672 " stroke="#b2b1b1" stroke-width="149.669998" stroke-opacity="1" stroke-miterlimit="10"/><g clip-path="url(#d93c4fa6f9)"><path stroke-linecap="butt" transform="matrix(-0.00318463, 0, 0, -0.00319144, 61.751317, 61.565221)" fill="none" stroke-linejoin="miter" d="M 16299.408932 8621.328761 L 9629.184919 1603.039613 " stroke="#b2b1b1" stroke-width="146.468002" stroke-opacity="1" stroke-miterlimit="10"/></g><g clip-path="url(#9c4102a4b2)"><path stroke-linecap="butt" transform="matrix(-0.00311638, 0, 0, -0.00312304, 61.751317, 61.565221)" fill="none" stroke-linejoin="miter" d="M 15337.726752 5365.479833 L 11556.045934 1533.080505 " stroke="#b2b1b1" stroke-width="149.669998" stroke-opacity="1" stroke-miterlimit="10"/></g><g clip-path="url(#ac46d4c2bd)"><path stroke-linecap="butt" transform="matrix(-0.00311638, 0, 0, -0.00312304, 61.751317, 61.565221)" fill="none" stroke-linejoin="miter" d="M 15008.06747 3371.731619 L 13220.637292 1638.146283 " stroke="#b2b1b1" stroke-width="149.669998" stroke-opacity="1" stroke-miterlimit="10"/></g><g clip-path="url(#b638f821ba)"><path stroke-linecap="butt" transform="matrix(-0.00311638, 0, 0, -0.00312304, 61.751317, 61.565221)" fill="none" stroke-linejoin="miter" d="M 14910.297797 8718.829246 L 9791.177988 3180.361809 " stroke="#b2b1b1" stroke-width="149.669998" stroke-opacity="1" stroke-miterlimit="10"/></g><path stroke-linecap="butt" transform="matrix(-0.00311638, 0, 0, -0.00312304, 61.751317, 61.565221)" fill="none" stroke-linejoin="miter" d="M 13120.360704 8718.829246 L 9578.090239 4751.345346 " stroke="#b2b1b1" stroke-width="149.669998" stroke-opacity="1" stroke-miterlimit="10"/><path stroke-linecap="butt" transform="matrix(-0.00311638, 0, 0, -0.00312304, 61.751317, 61.565221)" fill="none" stroke-linejoin="miter" d="M 11517.188756 8763.857436 L 9267.232816 6040.902691 " stroke="#b2b1b1" stroke-width="149.669998" stroke-opacity="1" stroke-miterlimit="10"/><path stroke-linecap="butt" transform="matrix(-0.00311638, 0, 0, -0.00312304, 61.751317, 61.565221)" fill="none" stroke-linejoin="miter" d="M 9936.57904 8695.064367 L 8886.181783 7165.356672 " stroke="#b2b1b1" stroke-width="149.669998" stroke-opacity="1" stroke-miterlimit="10"/><path stroke-linecap="butt" transform="matrix(-0.00311638, 0, 0, -0.00312304, 61.751317, 61.565221)" fill="none" stroke-linejoin="miter" d="M 9936.57904 8601.255637 L 9888.947661 8827.647373 C 9682.127199 9813.264432 9346.200629 10778.868963 8886.181783 11709.451568 L 8565.296702 12331.090754 " stroke="#b2b1b1" stroke-width="199.56" stroke-opacity="1" stroke-miterlimit="10"/><path stroke-linecap="butt" transform="matrix(-0.00311638, 0, 0, -0.00312304, 61.751317, 61.565221)" fill="none" stroke-linejoin="miter" d="M 11517.188756 8671.299489 C 11517.188756 8671.299489 11556.045934 9538.092157 10970.681352 12637.532606 " stroke="#b2b1b1" stroke-width="199.56" stroke-opacity="1" stroke-miterlimit="10"/><path stroke-linecap="butt" transform="matrix(-0.00312355, 0, 0, -0.00313023, 61.751317, 61.565221)" fill="none" stroke-linejoin="miter" d="M 14876.082034 8606.475752 L 14891.089005 8690.085908 C 15076.174985 9722.109774 15437.592879 10729.175385 15965.338038 11682.580747 L 16300.493732 12302.793397 " stroke="#b2b1b1" stroke-width="199.10001" stroke-opacity="1" stroke-miterlimit="10"/><path stroke-linecap="butt" transform="matrix(-0.00311638, 0, 0, -0.00312304, 61.751317, 61.565221)" fill="none" stroke-linejoin="miter" d="M 13120.360704 8626.271298 L 13859.900539 12511.203516 " stroke="#b2b1b1" stroke-width="199.56" stroke-opacity="1" stroke-miterlimit="10"/><g clip-path="url(#70878bdd3c)"><path fill="#b2b1b1" d="M 14.90625 56.332031 L 14.898438 56.777344 L 15.339844 56.597656 L 15.328125 56.015625 L 14.980469 56.179688 L 14.90625 56.332031 " fill-opacity="1" fill-rule="nonzero"/></g><g clip-path="url(#73a55d98cb)"><path fill="#b2b1b1" d="M 31.339844 56.292969 L 31.34375 56.765625 L 30.929688 56.597656 L 30.941406 56.015625 L 31.289062 56.179688 L 31.339844 56.292969 " fill-opacity="1" fill-rule="nonzero"/></g><g clip-path="url(#4cc5531cdd)"><path stroke-linecap="butt" transform="matrix(-0.00367047, 0, 0, -0.00367832, 61.751317, 61.565221)" fill="none" stroke-linejoin="miter" d="M 16300.202578 10092.599442 C 16300.202578 9686.928557 13721.557934 9358.781167 10540.555523 9358.781167 C 7359.553111 9358.781167 4780.908467 9686.928557 4780.908467 10092.599442 C 4780.908467 10497.20836 7359.553111 10825.355751 10540.555523 10825.355751 C 13721.557934 10825.355751 16300.202578 10497.20836 16300.202578 10092.599442 Z M 16300.202578 10092.599442 " stroke="#f25c19" stroke-width="550.64502" stroke-opacity="1" stroke-miterlimit="10"/></g><path fill="#d04716" d="M 53.679688 34.382812 L 54.652344 25.65625 L 53.050781 24.386719 C 52.9375 24.296875 52.765625 24.371094 52.753906 24.515625 L 51.925781 32.523438 C 51.921875 32.570312 51.933594 32.617188 51.964844 32.65625 L 53.347656 34.472656 C 53.449219 34.605469 53.660156 34.546875 53.679688 34.382812 " fill-opacity="1" fill-rule="nonzero"/><path fill="#f35e19" d="M 54.636719 25.648438 L 44.863281 25.191406 L 44.863281 23.710938 L 52.785156 24.179688 L 54.667969 25.5625 C 54.703125 25.59375 54.683594 25.652344 54.636719 25.648438 " fill-opacity="1" fill-rule="nonzero"/><g clip-path="url(#d01e5d4395)"><path stroke-linecap="butt" transform="matrix(-0.00311638, 0, 0, -0.00312304, 61.751317, 61.565221)" fill="none" stroke-linejoin="miter" d="M 12033.613183 11022.771662 L 11349.225471 11022.771662 L 9580.597153 9180.368199 L 2755.521894 9613.139141 C 2739.226949 9614.389924 2731.706204 9633.15167 2742.987321 9644.408718 L 3152.867873 10090.938274 " stroke="#f14b1c" stroke-width="399.12" stroke-opacity="1" stroke-miterlimit="10"/></g><path fill="#e2e2e2" d="M 24.636719 27.121094 C 24.636719 27.304688 24.78125 27.453125 24.964844 27.453125 C 25.144531 27.453125 25.292969 27.304688 25.292969 27.121094 C 25.292969 26.941406 25.144531 26.792969 24.964844 26.792969 C 24.78125 26.792969 24.636719 26.941406 24.636719 27.121094 " fill-opacity="1" fill-rule="nonzero"/><path fill="#cfcece" d="M 53.40625 48.207031 L 54.761719 48.207031 L 54.761719 1.0625 L 53.40625 1.0625 L 53.40625 48.207031 " fill-opacity="1" fill-rule="nonzero"/><g clip-path="url(#9e672cfd12)"><path fill="#0a0805" d="M 54.117188 49.210938 L 55.472656 49.210938 L 55.472656 0.0625 L 54.117188 0.0625 L 54.117188 49.210938 " fill-opacity="1" fill-rule="nonzero"/></g></svg>